<svg width="68" height="43" viewBox="0 0 68 43" fill="none" xmlns="http://www.w3.org/2000/svg">
<path d="M7.77898 0H48.5644C52.8512 0 56.3385 3.16185 56.3385 7.04774V17.4164H63.9303C66.1742 17.4164 68 19.2543 68 21.5133V32.9061C68 35.1665 66.1742 37.005 63.9303 37.005H59.0229C58.5838 40.3821 55.7157 43 52.2458 43C48.8496 43 46.031 40.4914 45.5015 37.2188H22.1638C21.6336 40.4907 18.8157 42.9986 15.4188 42.9986C12.0247 42.9986 9.20814 40.4907 8.67864 37.2188H1.07987C0.576813 37.2188 0.145424 36.8571 0.0535812 36.3595L0.017395 36.1646C0.00556946 36.1008 0 36.0364 0 35.9726V7.04774C0 3.16185 3.4901 0 7.77898 0ZM54.2511 8.09912H43.7098V17.4711L54.2511 17.4732V8.09912ZM41.6224 8.09912H28.6459V17.4683L41.6224 17.4704V8.09912ZM26.5585 8.09912H13.838V17.4662L26.5585 17.4676V8.09912ZM11.7506 8.09912H2.08738V17.4641L11.7506 17.4655V8.09912ZM48.5644 2.10276H7.77898C5.05564 2.10276 2.77692 3.77305 2.22028 5.99637H54.1189C53.563 3.77305 51.2849 2.10276 48.5644 2.10276ZM52.2458 40.8965C54.8676 40.8965 57.0002 38.7482 57.0002 36.1072C57.0002 33.4661 54.8676 31.3178 52.2458 31.3178C49.6241 31.3178 47.4915 33.4661 47.4915 36.1072C47.4915 38.7482 49.6248 40.8965 52.2458 40.8965ZM15.4188 40.8951C18.0413 40.8951 20.1739 38.7475 20.1739 36.1072C20.1739 33.4654 18.0413 31.3171 15.4188 31.3171C12.7991 31.3171 10.6686 33.4654 10.6686 36.1072C10.6686 38.7475 12.7998 40.8951 15.4188 40.8951ZM8.66055 35.1154C9.13995 31.7839 11.9837 29.2143 15.4188 29.2143C18.8567 29.2143 21.7025 31.7839 22.1819 35.1154H45.4834C45.9635 31.7846 48.8086 29.215 52.2458 29.215C55.6093 29.215 58.4078 31.6752 58.9762 34.9016H63.9303C65.0234 34.9016 65.9126 34.0065 65.9126 32.9054V21.5133C65.9126 20.4143 65.0234 19.5192 63.9303 19.5192H55.4305C55.4277 19.5192 55.4249 19.5185 55.4214 19.5185C55.3184 19.5528 55.2113 19.5753 55.0972 19.5753L2.08738 19.5669V35.1154H8.66055Z" fill="#9C9C9C"/>
</svg>
