<svg width="67" height="30" viewBox="0 0 67 30" fill="none" xmlns="http://www.w3.org/2000/svg">
<path d="M63.4737 13.1683L49.8832 9.12068L41.9631 1.95637C40.5667 0.697393 38.7195 -0.00261161 36.8006 7.32221e-06H21.2848C14.4297 7.32221e-06 11.0303 6.90123 10.1417 9.04647L4.23158 10.5239C3.02466 10.8219 1.95491 11.4939 1.18937 12.4349C0.423834 13.3758 0.00560729 14.5328 0 15.7251V21.0005C0 22.0507 0.436166 23.058 1.21255 23.8006C1.98893 24.5432 3.04193 24.9604 4.13989 24.9604H7.66621C7.87806 26.3599 8.60987 27.6396 9.72762 28.5651C10.8454 29.4906 12.2743 30 13.7526 30C15.231 30 16.6599 29.4906 17.7776 28.5651C18.8954 27.6396 19.6272 26.3599 19.839 24.9604H44.0578C44.2696 26.3599 45.0014 27.6396 46.1192 28.5651C47.2369 29.4906 48.6658 30 50.1442 30C51.6226 30 53.0514 29.4906 54.1692 28.5651C55.2869 27.6396 56.0188 26.3599 56.2306 24.9604H62.8601C63.958 24.9604 65.011 24.5432 65.7874 23.8006C66.5638 23.058 67 22.0507 67 21.0005V17.7691C67.0034 16.7424 66.6629 15.7417 66.0283 14.9137C65.3936 14.0857 64.4983 13.474 63.4737 13.1683ZM21.306 2.02383H36.8218C38.2016 2.02148 39.5296 2.52622 40.5315 3.43375L46.4416 8.76988H12.5889C13.809 6.37503 16.6372 2.02383 21.306 2.02383ZM13.7597 27.9962C12.9598 27.9975 12.1775 27.7717 11.5119 27.3475C10.8462 26.9233 10.3272 26.3196 10.0204 25.613C9.7137 24.9064 9.63308 24.1287 9.78878 23.3782C9.94449 22.6277 10.3295 21.9384 10.8951 21.3974C11.4607 20.8563 12.1814 20.4881 12.966 20.3391C13.7505 20.1902 14.5637 20.2673 15.3024 20.5607C16.0411 20.8541 16.6722 21.3506 17.1157 21.9873C17.5592 22.624 17.7952 23.3723 17.7938 24.1374C17.7919 25.1603 17.3663 26.1407 16.6102 26.864C15.854 27.5873 14.829 27.9944 13.7597 27.9962ZM50.1512 27.9962C49.3514 27.9975 48.5691 27.7717 47.9034 27.3475C47.2378 26.9233 46.7187 26.3196 46.412 25.613C46.1053 24.9064 46.0246 24.1287 46.1803 23.3782C46.3361 22.6277 46.7211 21.9384 47.2867 21.3974C47.8523 20.8563 48.573 20.4881 49.3575 20.3391C50.1421 20.1902 50.9552 20.2673 51.6939 20.5607C52.4327 20.8541 53.0637 21.3506 53.5072 21.9873C53.9507 22.624 54.1867 23.3723 54.1853 24.1374C54.1835 25.1603 53.7579 26.1407 53.0017 26.864C52.2456 27.5873 51.2206 27.9944 50.1512 27.9962ZM64.8842 21.0005C64.8823 21.5134 64.6685 22.0049 64.2893 22.3676C63.9101 22.7303 63.3963 22.9348 62.8601 22.9366H56.1671C55.8811 21.6108 55.1257 20.42 54.0285 19.565C52.9313 18.71 51.5594 18.2431 50.1442 18.2431C48.729 18.2431 47.357 18.71 46.2598 19.565C45.1626 20.42 44.4073 21.6108 44.1212 22.9366H19.7474C19.4366 21.6383 18.6743 20.4793 17.5853 19.6492C16.4963 18.8191 15.1451 18.3671 13.7526 18.3671C12.3602 18.3671 11.0089 18.8191 9.91993 19.6492C8.83095 20.4793 8.0687 21.6383 7.75789 22.9366H4.13989C3.60364 22.9348 3.08988 22.7303 2.71069 22.3676C2.3315 22.0049 2.11765 21.5134 2.11579 21.0005V15.7251C2.11942 14.9836 2.37839 14.2639 2.85264 13.6773C3.32689 13.0908 3.98999 12.67 4.73937 12.4802L10.7764 10.9893C11.0539 11.0223 11.3341 10.9523 11.5593 10.7937H48.7055C48.7983 10.8645 48.9033 10.9193 49.0158 10.9556L62.8389 15.1044C63.439 15.2823 63.9626 15.6414 64.3313 16.1279C64.7001 16.6144 64.894 17.202 64.8842 17.8029V21.0005Z" fill="#9C9C9C"/>
</svg>
