<svg width="58" height="47" viewBox="0 0 58 47" fill="none" xmlns="http://www.w3.org/2000/svg">
<path d="M56.9518 40.201H47.5181V1.02206C47.5181 0.750993 47.4076 0.491028 47.2111 0.299355C47.0145 0.107682 46.7479 0 46.4699 0C46.1919 0 45.9253 0.107682 45.7287 0.299355C45.5321 0.491028 45.4217 0.750993 45.4217 1.02206V34.75H41.9277V31.4863C41.9259 29.6417 41.1736 27.8733 39.836 26.569C38.4983 25.2648 36.6847 24.5312 34.793 24.5294H34.5764L22.8366 5.06942C21.9028 3.52924 20.5745 2.25217 18.9819 1.36346C17.3893 0.47474 15.5872 0.00489453 13.7523 0H5.24096C4.96297 0 4.69635 0.107682 4.49978 0.299355C4.30321 0.491028 4.19277 0.750993 4.19277 1.02206V24.5294H1.04819C0.770195 24.5294 0.503583 24.6371 0.307008 24.8288C0.110434 25.0205 0 25.2804 0 25.5515V41.2231C0 41.4942 0.110434 41.7541 0.307008 41.9458C0.503583 42.1375 0.770195 42.2451 1.04819 42.2451H5.05229C5.37181 43.5967 6.15176 44.8027 7.26482 45.6662C8.37788 46.5298 9.75829 47 11.1807 47C12.6032 47 13.9836 46.5298 15.0966 45.6662C16.2097 44.8027 16.9896 43.5967 17.3092 42.2451H24.6186C24.9381 43.5967 25.718 44.8027 26.8311 45.6662C27.9441 46.5298 29.3246 47 30.747 47C32.1694 47 33.5498 46.5298 34.6629 45.6662C35.776 44.8027 36.5559 43.5967 36.8754 42.2451H40.8795C41.1575 42.2451 41.4241 42.1375 41.6207 41.9458C41.8173 41.7541 41.9277 41.4942 41.9277 41.2231V36.7942H45.4217V41.2231C45.4217 41.4942 45.5321 41.7541 45.7287 41.9458C45.9253 42.1375 46.1919 42.2451 46.4699 42.2451H56.9518C57.2298 42.2451 57.4964 42.1375 57.693 41.9458C57.8896 41.7541 58 41.4942 58 41.2231C58 40.952 57.8896 40.6921 57.693 40.5004C57.4964 40.3087 57.2298 40.201 56.9518 40.201ZM6.28916 2.04412H13.7453C15.2194 2.05122 16.6662 2.43178 17.9439 3.14849C19.2217 3.8652 20.2864 4.89344 21.0337 6.13236L32.1446 24.5294H6.28916V2.04412ZM11.1807 44.9706C10.3515 44.9706 9.54084 44.7309 8.85134 44.2816C8.16185 43.8324 7.62445 43.1939 7.30711 42.4469C6.98977 41.6999 6.90674 40.8779 7.06851 40.0848C7.23029 39.2918 7.62962 38.5633 8.21599 37.9916C8.80236 37.4198 9.54944 37.0305 10.3628 36.8727C11.1761 36.715 12.0191 36.7959 12.7852 37.1054C13.5514 37.4148 14.2062 37.9388 14.6669 38.6111C15.1276 39.2834 15.3735 40.0738 15.3735 40.8824C15.3735 41.9667 14.9318 43.0065 14.1455 43.7732C13.3592 44.5399 12.2927 44.9706 11.1807 44.9706ZM30.747 44.9706C29.9177 44.9706 29.1071 44.7309 28.4176 44.2816C27.7281 43.8324 27.1907 43.1939 26.8734 42.4469C26.556 41.6999 26.473 40.8779 26.6348 40.0848C26.7966 39.2918 27.1959 38.5633 27.7823 37.9916C28.3686 37.4198 29.1157 37.0305 29.929 36.8727C30.7423 36.715 31.5854 36.7959 32.3515 37.1054C33.1176 37.4148 33.7724 37.9388 34.2332 38.6111C34.6939 39.2834 34.9398 40.0738 34.9398 40.8824C34.9398 41.9667 34.498 43.0065 33.7117 43.7732C32.9254 44.5399 31.859 44.9706 30.747 44.9706ZM39.8313 40.201H36.9942C36.8164 38.7071 36.0817 37.3289 34.9299 36.3286C33.7781 35.3283 32.2894 34.7756 30.747 34.7756C29.2045 34.7756 27.7159 35.3283 26.5641 36.3286C25.4122 37.3289 24.6776 38.7071 24.4998 40.201H17.428C17.2501 38.7071 16.5155 37.3289 15.3637 36.3286C14.2118 35.3283 12.7232 34.7756 11.1807 34.7756C9.63828 34.7756 8.14961 35.3283 6.99779 36.3286C5.84596 37.3289 5.1113 38.7071 4.93349 40.201H2.09639V26.5736H34.793C36.1281 26.5772 37.4075 27.0959 38.3516 28.0164C39.2956 28.937 39.8276 30.1844 39.8313 31.4863V40.201Z" fill="#FFD700"/>
<path d="M56.9518 40.201H47.5181V1.02206C47.5181 0.750993 47.4076 0.491028 47.2111 0.299355C47.0145 0.107682 46.7479 0 46.4699 0C46.1919 0 45.9253 0.107682 45.7287 0.299355C45.5321 0.491028 45.4217 0.750993 45.4217 1.02206V34.75H41.9277V31.4863C41.9259 29.6417 41.1736 27.8733 39.836 26.569C38.4983 25.2648 36.6847 24.5312 34.793 24.5294H34.5764L22.8366 5.06942C21.9028 3.52924 20.5745 2.25217 18.9819 1.36346C17.3893 0.47474 15.5872 0.00489453 13.7523 0H5.24096C4.96297 0 4.69635 0.107682 4.49978 0.299355C4.30321 0.491028 4.19277 0.750993 4.19277 1.02206V24.5294H1.04819C0.770195 24.5294 0.503583 24.6371 0.307008 24.8288C0.110434 25.0205 0 25.2804 0 25.5515V41.2231C0 41.4942 0.110434 41.7541 0.307008 41.9458C0.503583 42.1375 0.770195 42.2451 1.04819 42.2451H5.05229C5.37181 43.5967 6.15176 44.8027 7.26482 45.6662C8.37788 46.5298 9.75829 47 11.1807 47C12.6032 47 13.9836 46.5298 15.0966 45.6662C16.2097 44.8027 16.9896 43.5967 17.3092 42.2451H24.6186C24.9381 43.5967 25.718 44.8027 26.8311 45.6662C27.9441 46.5298 29.3246 47 30.747 47C32.1694 47 33.5498 46.5298 34.6629 45.6662C35.776 44.8027 36.5559 43.5967 36.8754 42.2451H40.8795C41.1575 42.2451 41.4241 42.1375 41.6207 41.9458C41.8173 41.7541 41.9277 41.4942 41.9277 41.2231V36.7942H45.4217V41.2231C45.4217 41.4942 45.5321 41.7541 45.7287 41.9458C45.9253 42.1375 46.1919 42.2451 46.4699 42.2451H56.9518C57.2298 42.2451 57.4964 42.1375 57.693 41.9458C57.8896 41.7541 58 41.4942 58 41.2231C58 40.952 57.8896 40.6921 57.693 40.5004C57.4964 40.3087 57.2298 40.201 56.9518 40.201ZM6.28916 2.04412H13.7453C15.2194 2.05122 16.6662 2.43178 17.9439 3.14849C19.2217 3.8652 20.2864 4.89344 21.0337 6.13236L32.1446 24.5294H6.28916V2.04412ZM11.1807 44.9706C10.3515 44.9706 9.54084 44.7309 8.85134 44.2816C8.16185 43.8324 7.62445 43.1939 7.30711 42.4469C6.98977 41.6999 6.90674 40.8779 7.06851 40.0848C7.23029 39.2918 7.62962 38.5633 8.21599 37.9916C8.80236 37.4198 9.54944 37.0305 10.3628 36.8727C11.1761 36.715 12.0191 36.7959 12.7852 37.1054C13.5514 37.4148 14.2062 37.9388 14.6669 38.6111C15.1276 39.2834 15.3735 40.0738 15.3735 40.8824C15.3735 41.9667 14.9318 43.0065 14.1455 43.7732C13.3592 44.5399 12.2927 44.9706 11.1807 44.9706ZM30.747 44.9706C29.9177 44.9706 29.1071 44.7309 28.4176 44.2816C27.7281 43.8324 27.1907 43.1939 26.8734 42.4469C26.556 41.6999 26.473 40.8779 26.6348 40.0848C26.7966 39.2918 27.1959 38.5633 27.7823 37.9916C28.3686 37.4198 29.1157 37.0305 29.929 36.8727C30.7423 36.715 31.5854 36.7959 32.3515 37.1054C33.1176 37.4148 33.7724 37.9388 34.2332 38.6111C34.6939 39.2834 34.9398 40.0738 34.9398 40.8824C34.9398 41.9667 34.498 43.0065 33.7117 43.7732C32.9254 44.5399 31.859 44.9706 30.747 44.9706ZM39.8313 40.201H36.9942C36.8164 38.7071 36.0817 37.3289 34.9299 36.3286C33.7781 35.3283 32.2894 34.7756 30.747 34.7756C29.2045 34.7756 27.7159 35.3283 26.5641 36.3286C25.4122 37.3289 24.6776 38.7071 24.4998 40.201H17.428C17.2501 38.7071 16.5155 37.3289 15.3637 36.3286C14.2118 35.3283 12.7232 34.7756 11.1807 34.7756C9.63828 34.7756 8.14961 35.3283 6.99779 36.3286C5.84596 37.3289 5.1113 38.7071 4.93349 40.201H2.09639V26.5736H34.793C36.1281 26.5772 37.4075 27.0959 38.3516 28.0164C39.2956 28.937 39.8276 30.1844 39.8313 31.4863V40.201Z" fill="url(#paint0_linear)"/>
<defs>
<linearGradient id="paint0_linear" x1="29" y1="0" x2="29" y2="47" gradientUnits="userSpaceOnUse">
<stop stop-color="#FFD700"/>
<stop offset="1" stop-color="white" stop-opacity="0"/>
</linearGradient>
</defs>
</svg>
