<svg width="62" height="39" viewBox="0 0 62 39" fill="none" xmlns="http://www.w3.org/2000/svg">
<path d="M61.8098 18.8916L57.3993 12.6449C56.7433 11.7185 55.8673 10.9614 54.8464 10.4384C53.8255 9.91541 52.6901 9.64217 51.5375 9.64207H40.1591V1.03308C40.1591 0.759089 40.0477 0.496322 39.8496 0.302582C39.6514 0.108842 39.3826 0 39.1023 0H1.05682C0.776532 0 0.507727 0.108842 0.309535 0.302582C0.111343 0.496322 0 0.759089 0 1.03308V33.4029C0 33.6769 0.111343 33.9396 0.309535 34.1334C0.507727 34.3271 0.776532 34.436 1.05682 34.436H9.78613C9.95592 35.6985 10.5895 36.8576 11.5688 37.6973C12.5481 38.537 13.8063 39 15.109 39C16.4116 39 17.6698 38.537 18.6492 37.6973C19.6285 36.8576 20.262 35.6985 20.4318 34.436H44.02C44.2116 35.6801 44.8534 36.8158 45.8289 37.6365C46.8044 38.4573 48.0487 38.9087 49.3358 38.9087C50.6229 38.9087 51.8672 38.4573 52.8427 37.6365C53.8182 36.8158 54.46 35.6801 54.6516 34.436H60.9432C61.2235 34.436 61.4923 34.3271 61.6905 34.1334C61.8887 33.9396 62 33.6769 62 33.4029V19.477C62.0006 19.2672 61.9341 19.0625 61.8098 18.8916V18.8916ZM51.5375 11.7082C52.3484 11.7077 53.1472 11.8999 53.8652 12.2682C54.5832 12.6366 55.1988 13.17 55.6591 13.8226L59.0339 18.5954H40.1591V11.7082H51.5375ZM15.1055 36.8465C14.458 36.8492 13.8243 36.6639 13.2847 36.3141C12.7451 35.9644 12.3239 35.4658 12.0745 34.8817C11.8251 34.2976 11.7588 33.6543 11.8839 33.0333C12.009 32.4123 12.3199 31.8417 12.7773 31.3936C13.2346 30.9456 13.8177 30.6404 14.4527 30.5168C15.0877 30.3931 15.746 30.4566 16.344 30.6991C16.9421 30.9416 17.453 31.3523 17.8119 31.879C18.1709 32.4057 18.3618 33.0248 18.3605 33.6577C18.3586 34.5017 18.0153 35.3107 17.4055 35.9081C16.7956 36.5055 15.9688 36.8428 15.1055 36.8465ZM15.1055 28.3959C13.9035 28.3921 12.7348 28.7812 11.7851 29.5012C10.8353 30.2212 10.159 31.2309 9.86364 32.3698H2.11364V2.06616H38.0455V32.3698H20.305C20.0125 31.2372 19.3428 30.2319 18.4014 29.5124C17.46 28.7929 16.3004 28.4001 15.1055 28.3959V28.3959ZM49.3182 36.8465C48.6713 36.8465 48.039 36.6589 47.5012 36.3074C46.9635 35.956 46.5445 35.4565 46.2973 34.8722C46.05 34.2878 45.9857 33.6449 46.1124 33.0248C46.2391 32.4048 46.5512 31.8354 47.0091 31.3887C47.467 30.9421 48.0501 30.6383 48.6847 30.5157C49.3193 30.3932 49.9769 30.4575 50.5741 30.7004C51.1713 30.9433 51.6814 31.354 52.0398 31.8804C52.3981 32.4069 52.5887 33.0254 52.5873 33.6577C52.5854 34.5041 52.2402 35.3151 51.6273 35.9129C51.0144 36.5108 50.184 36.8465 49.3182 36.8465V36.8465ZM54.5318 32.3698C54.2427 31.2328 53.5727 30.223 52.6285 29.5014C51.6843 28.7797 50.5202 28.3877 49.3217 28.3877C48.1232 28.3877 46.9591 28.7797 46.0149 29.5014C45.0707 30.223 44.4007 31.2328 44.1116 32.3698H40.1591V20.6616H59.8864V32.3698H54.5318Z" fill="#FFD700"/>
</svg>
