<svg width="179" height="82" viewBox="0 0 179 82" fill="none" xmlns="http://www.w3.org/2000/svg">
<path d="M7.248 74.968V76H1.176V74.968L3.24 74.536V60.76L1.176 60.4V59.368L7.248 59.248V60.28L5.208 60.736V66.688H8.16L11.808 60.688L9.864 60.4V59.368L15.696 59.248V60.28L13.704 60.736L9.648 67.288L14.76 74.56L16.656 74.968V76H10.68V74.968L12.528 74.56L8.136 68.152H5.208V74.512L7.248 74.968ZM23.0404 63.112C24.7844 63.112 26.1604 63.664 27.1684 64.768C28.1764 65.872 28.6804 67.432 28.6804 69.448C28.6804 70.824 28.4404 72.016 27.9604 73.024C27.4804 74.032 26.7844 74.816 25.8724 75.376C24.9764 75.936 23.8964 76.216 22.6324 76.216C20.9044 76.216 19.5524 75.68 18.5764 74.608C17.6004 73.52 17.1124 71.96 17.1124 69.928C17.1124 68.536 17.3444 67.328 17.8084 66.304C18.2884 65.28 18.9684 64.496 19.8484 63.952C20.7444 63.392 21.8084 63.112 23.0404 63.112ZM22.9444 64.528C21.7124 64.528 20.7684 64.992 20.1124 65.92C19.4564 66.848 19.1284 68.152 19.1284 69.832C19.1284 71.48 19.4404 72.72 20.0644 73.552C20.6884 74.384 21.5844 74.8 22.7524 74.8C24.0324 74.8 25.0004 74.336 25.6564 73.408C26.3284 72.48 26.6644 71.192 26.6644 69.544C26.6644 67.912 26.3364 66.672 25.6804 65.824C25.0404 64.96 24.1284 64.528 22.9444 64.528ZM35.8851 74.968V76H30.6771V74.968L32.5491 74.56V64.84L30.6771 64.408V63.4L34.7091 63.256L38.8131 71.8L42.9891 63.4L46.9971 63.256V64.264L45.1011 64.768V74.56L46.9971 74.968V76H41.6451V74.968L43.3971 74.56V65.512L39.1971 73.984L38.2371 74.056L34.0851 65.608V74.56L35.8851 74.968ZM53.9554 74.968V76H48.7474V74.968L50.6194 74.56V64.84L48.7474 64.408V63.4L52.7794 63.256L56.8834 71.8L61.0594 63.4L65.0674 63.256V64.264L63.1714 64.768V74.56L65.0674 74.968V76H59.7154V74.968L61.4674 74.56V65.512L57.2674 73.984L56.3074 74.056L52.1554 65.608V74.56L53.9554 74.968ZM72.5537 76.216C71.4817 76.216 70.5297 75.976 69.6977 75.496C68.8817 75 68.2417 74.28 67.7777 73.336C67.3137 72.392 67.0817 71.232 67.0817 69.856C67.0817 68.48 67.3217 67.288 67.8017 66.28C68.2817 65.272 68.9537 64.496 69.8177 63.952C70.6977 63.392 71.7377 63.112 72.9377 63.112C74.0577 63.112 74.9777 63.352 75.6977 63.832C76.4337 64.296 76.9777 64.944 77.3297 65.776C77.6977 66.608 77.8817 67.56 77.8817 68.632C77.8817 68.808 77.8737 68.992 77.8577 69.184C77.8417 69.36 77.8257 69.568 77.8097 69.808H69.0737C69.1057 71.312 69.4577 72.512 70.1297 73.408C70.8017 74.288 71.7617 74.728 73.0097 74.728C73.6017 74.728 74.2497 74.616 74.9537 74.392C75.6577 74.152 76.3857 73.792 77.1377 73.312L77.8337 74.392C76.9377 75.016 76.0417 75.48 75.1457 75.784C74.2497 76.072 73.3857 76.216 72.5537 76.216ZM72.7937 64.576C71.7377 64.576 70.8977 64.936 70.2737 65.656C69.6657 66.36 69.2897 67.288 69.1457 68.44H75.8897C75.9057 67.752 75.8097 67.12 75.6017 66.544C75.3937 65.952 75.0577 65.48 74.5937 65.128C74.1457 64.76 73.5457 64.576 72.7937 64.576ZM79.7261 81.52V80.488L81.5981 80.056V64.84L79.7261 64.432V63.4L83.0861 63.232L83.3021 65.008C84.7101 63.744 86.1101 63.112 87.5021 63.112C88.3981 63.112 89.1981 63.36 89.9021 63.856C90.6221 64.336 91.1901 65.048 91.6061 65.992C92.0221 66.936 92.2301 68.088 92.2301 69.448C92.2301 71.672 91.6701 73.36 90.5501 74.512C89.4461 75.664 87.9741 76.24 86.1341 76.24C85.7181 76.24 85.2941 76.208 84.8621 76.144C84.4301 76.08 83.9821 75.992 83.5181 75.88V80.056L85.7261 80.488V81.52H79.7261ZM85.9181 74.8C87.3261 74.8 88.3981 74.352 89.1341 73.456C89.8701 72.544 90.2381 71.272 90.2381 69.64C90.2381 68.056 89.9101 66.816 89.2541 65.92C88.6141 65.024 87.8061 64.576 86.8301 64.576C86.3181 64.576 85.7741 64.704 85.1981 64.96C84.6381 65.216 84.0781 65.608 83.5181 66.136V74.416C84.3821 74.672 85.1821 74.8 85.9181 74.8ZM105.78 74.968V76H99.5644V74.968L101.964 74.56V70.816C101.292 71.008 100.652 71.16 100.044 71.272C99.4364 71.368 98.8684 71.416 98.3404 71.416C97.1244 71.416 96.1564 71.096 95.4364 70.456C94.7164 69.816 94.3564 68.768 94.3564 67.312V64.816L92.4604 64.408V63.4L98.0284 63.256V64.264L96.2764 64.744V67.024C96.2764 68.112 96.5084 68.88 96.9724 69.328C97.4524 69.76 98.1244 69.976 98.9884 69.976C99.4044 69.976 99.8604 69.936 100.356 69.856C100.852 69.776 101.388 69.664 101.964 69.52V64.768L100.212 64.408V63.4L105.78 63.256V64.264L103.884 64.744V74.536L105.78 74.968ZM113.265 76.216C112.193 76.216 111.241 75.976 110.409 75.496C109.593 75 108.953 74.28 108.489 73.336C108.025 72.392 107.793 71.232 107.793 69.856C107.793 68.48 108.033 67.288 108.513 66.28C108.993 65.272 109.665 64.496 110.529 63.952C111.409 63.392 112.449 63.112 113.649 63.112C114.769 63.112 115.689 63.352 116.409 63.832C117.145 64.296 117.689 64.944 118.041 65.776C118.409 66.608 118.593 67.56 118.593 68.632C118.593 68.808 118.585 68.992 118.569 69.184C118.553 69.36 118.537 69.568 118.521 69.808H109.785C109.817 71.312 110.169 72.512 110.841 73.408C111.513 74.288 112.473 74.728 113.721 74.728C114.313 74.728 114.961 74.616 115.665 74.392C116.369 74.152 117.097 73.792 117.849 73.312L118.545 74.392C117.649 75.016 116.753 75.48 115.857 75.784C114.961 76.072 114.097 76.216 113.265 76.216ZM113.505 64.576C112.449 64.576 111.609 64.936 110.985 65.656C110.377 66.36 110.001 67.288 109.857 68.44H116.601C116.617 67.752 116.521 67.12 116.313 66.544C116.105 65.952 115.769 65.48 115.305 65.128C114.857 64.76 114.257 64.576 113.505 64.576ZM126.317 76.216C125.293 76.216 124.365 75.968 123.533 75.472C122.717 74.96 122.069 74.224 121.589 73.264C121.125 72.304 120.893 71.152 120.893 69.808C120.893 68.256 121.173 66.992 121.733 66.016C122.293 65.024 123.029 64.296 123.941 63.832C124.869 63.352 125.861 63.112 126.917 63.112C127.557 63.112 128.237 63.2 128.957 63.376C129.693 63.552 130.333 63.792 130.877 64.096L130.781 67.096H129.485L129.173 64.96C128.805 64.816 128.413 64.712 127.997 64.648C127.581 64.568 127.213 64.528 126.893 64.528C125.645 64.528 124.661 64.992 123.941 65.92C123.237 66.848 122.885 68.104 122.885 69.688C122.885 71.32 123.245 72.568 123.965 73.432C124.701 74.296 125.629 74.728 126.749 74.728C127.309 74.728 127.909 74.616 128.549 74.392C129.205 74.152 129.877 73.784 130.565 73.288L131.237 74.344C130.405 74.984 129.573 75.456 128.741 75.76C127.909 76.064 127.101 76.216 126.317 76.216ZM132.677 76V74.968L134.549 74.56V64.768L132.677 64.408V63.4L138.245 63.256V64.264L136.469 64.696V68.68H139.085L141.485 64.672L139.781 64.432V63.4L145.061 63.232V64.264L143.333 64.6L140.597 69.136L143.909 74.608L145.733 74.968V76H142.685L139.157 70.024H136.469V74.536L138.533 74.968V76H132.677ZM146.365 76V74.968L148.237 74.536V64.816L146.365 64.408V63.4L151.909 63.256V64.264L150.085 64.744V72.232L156.757 65.272V64.768L154.909 64.408V63.4L160.453 63.256V64.264L158.581 64.744V74.536L160.453 74.968V76H154.909V74.968L156.733 74.56V66.904L150.085 74.008V74.608L151.909 74.968V76H146.365ZM162.232 76V74.968L164.104 74.536V64.816L162.232 64.408V63.4L167.776 63.256V64.264L165.952 64.744V72.232L172.624 65.272V64.768L170.776 64.408V63.4L176.32 63.256V64.264L174.448 64.744V74.536L176.32 74.968V76H170.776V74.968L172.6 74.56V66.904L165.952 74.008V74.608L167.776 74.968V76H162.232ZM169.288 60.616C168.344 60.616 167.52 60.384 166.816 59.92C166.112 59.456 165.728 58.704 165.664 57.664L167.512 57.544C167.56 58.232 167.776 58.736 168.16 59.056C168.56 59.36 169.032 59.512 169.576 59.512C170.104 59.512 170.544 59.36 170.896 59.056C171.248 58.752 171.416 58.272 171.4 57.616L172.864 57.544C172.864 58.248 172.696 58.832 172.36 59.296C172.04 59.744 171.608 60.08 171.064 60.304C170.536 60.512 169.944 60.616 169.288 60.616Z" fill="#9C9C9C"/>
<path d="M63.779 0H104.564C108.851 0 112.338 3.16185 112.338 7.04774V17.4164H119.93C122.174 17.4164 124 19.2543 124 21.5133V32.9061C124 35.1665 122.174 37.005 119.93 37.005H115.023C114.584 40.3821 111.716 43 108.246 43C104.85 43 102.031 40.4914 101.501 37.2188H78.1638C77.6336 40.4907 74.8157 42.9986 71.4188 42.9986C68.0247 42.9986 65.2081 40.4907 64.6786 37.2188H57.0799C56.5768 37.2188 56.1454 36.8571 56.0536 36.3595L56.0174 36.1646C56.0056 36.1009 56 36.0364 56 35.9726V7.04774C56 3.16185 59.4901 0 63.779 0ZM110.251 8.09912H99.7098V17.4711L110.251 17.4732V8.09912ZM97.6224 8.09912H84.6459V17.4683L97.6224 17.4704V8.09912ZM82.5585 8.09912H69.838V17.4662L82.5585 17.4676V8.09912ZM67.7506 8.09912H58.0874V17.4641L67.7506 17.4655V8.09912ZM104.564 2.10276H63.779C61.0556 2.10276 58.7769 3.77305 58.2203 5.99637H110.119C109.563 3.77305 107.285 2.10276 104.564 2.10276ZM108.246 40.8965C110.868 40.8965 113 38.7482 113 36.1072C113 33.4661 110.868 31.3178 108.246 31.3178C105.624 31.3178 103.491 33.4661 103.491 36.1072C103.491 38.7482 105.625 40.8965 108.246 40.8965ZM71.4188 40.8951C74.0413 40.8951 76.1739 38.7475 76.1739 36.1072C76.1739 33.4654 74.0413 31.3171 71.4188 31.3171C68.7991 31.3171 66.6686 33.4654 66.6686 36.1072C66.6686 38.7475 68.7998 40.8951 71.4188 40.8951ZM64.6606 35.1154C65.14 31.7839 67.9837 29.2143 71.4188 29.2143C74.8567 29.2143 77.7025 31.7839 78.1819 35.1154H101.483C101.963 31.7846 104.809 29.215 108.246 29.215C111.609 29.215 114.408 31.6752 114.976 34.9016H119.93C121.023 34.9016 121.913 34.0065 121.913 32.9054V21.5133C121.913 20.4143 121.023 19.5192 119.93 19.5192H111.43C111.428 19.5192 111.425 19.5185 111.421 19.5185C111.318 19.5528 111.211 19.5753 111.097 19.5753L58.0874 19.5669V35.1154H64.6606Z" fill="#9C9C9C"/>
</svg>
