<svg width="112" height="64" viewBox="0 0 112 64" fill="none" xmlns="http://www.w3.org/2000/svg">
<path d="M1.728 63.264C1.296 63.264 0.784 63.184 0.192 63.024L0.48 61.128C0.816 61.224 1.104 61.272 1.344 61.272C2.096 61.272 2.696 60.984 3.144 60.408C3.608 59.832 3.96 59.064 4.2 58.104C4.456 57.144 4.64 56.072 4.752 54.888C4.864 53.704 4.936 52.496 4.968 51.264C5 50.032 5.04 48.872 5.088 47.784L3 47.4V46.368L6.6 46.248H15.768V47.28L13.68 47.76V61.536L15.768 61.968V63H9.336V61.968L11.736 61.512V47.712L6.648 47.736C6.584 49.128 6.52 50.552 6.456 52.008C6.408 53.464 6.312 54.864 6.168 56.208C6.024 57.552 5.784 58.752 5.448 59.808C5.128 60.864 4.672 61.704 4.08 62.328C3.488 62.952 2.704 63.264 1.728 63.264ZM23.1474 63.216C22.0754 63.216 21.1234 62.976 20.2914 62.496C19.4754 62 18.8354 61.28 18.3714 60.336C17.9074 59.392 17.6754 58.232 17.6754 56.856C17.6754 55.48 17.9154 54.288 18.3954 53.28C18.8754 52.272 19.5474 51.496 20.4114 50.952C21.2914 50.392 22.3314 50.112 23.5314 50.112C24.6514 50.112 25.5714 50.352 26.2914 50.832C27.0274 51.296 27.5714 51.944 27.9234 52.776C28.2914 53.608 28.4754 54.56 28.4754 55.632C28.4754 55.808 28.4674 55.992 28.4514 56.184C28.4354 56.36 28.4194 56.568 28.4034 56.808H19.6674C19.6994 58.312 20.0514 59.512 20.7234 60.408C21.3954 61.288 22.3554 61.728 23.6034 61.728C24.1954 61.728 24.8434 61.616 25.5474 61.392C26.2514 61.152 26.9794 60.792 27.7314 60.312L28.4274 61.392C27.5314 62.016 26.6354 62.48 25.7394 62.784C24.8434 63.072 23.9794 63.216 23.1474 63.216ZM23.3874 51.576C22.3314 51.576 21.4914 51.936 20.8674 52.656C20.2594 53.36 19.8834 54.288 19.7394 55.44H26.4834C26.4994 54.752 26.4034 54.12 26.1954 53.544C25.9874 52.952 25.6514 52.48 25.1874 52.128C24.7394 51.76 24.1394 51.576 23.3874 51.576ZM40.6879 50.328L40.6159 54.456H39.4159L39.1039 51.792H34.3759V61.56L36.7759 61.968V63H30.5839V61.968L32.4559 61.56V51.84L30.5839 51.432V50.4L33.9439 50.328H40.6879ZM41.6458 63V61.968L43.5178 61.56V51.768L41.6458 51.408V50.4L47.2138 50.256V51.264L45.4378 51.696V55.68H48.0538L50.4538 51.672L48.7498 51.432V50.4L54.0298 50.232V51.264L52.3018 51.6L49.5658 56.136L52.8778 61.608L54.7018 61.968V63H51.6538L48.1258 57.024H45.4378V61.536L47.5018 61.968V63H41.6458ZM61.056 50.112C62.8 50.112 64.176 50.664 65.184 51.768C66.192 52.872 66.696 54.432 66.696 56.448C66.696 57.824 66.456 59.016 65.976 60.024C65.496 61.032 64.8 61.816 63.888 62.376C62.992 62.936 61.912 63.216 60.648 63.216C58.92 63.216 57.568 62.68 56.592 61.608C55.616 60.52 55.128 58.96 55.128 56.928C55.128 55.536 55.36 54.328 55.824 53.304C56.304 52.28 56.984 51.496 57.864 50.952C58.76 50.392 59.824 50.112 61.056 50.112ZM60.96 51.528C59.728 51.528 58.784 51.992 58.128 52.92C57.472 53.848 57.144 55.152 57.144 56.832C57.144 58.48 57.456 59.72 58.08 60.552C58.704 61.384 59.6 61.8 60.768 61.8C62.048 61.8 63.016 61.336 63.672 60.408C64.344 59.48 64.68 58.192 64.68 56.544C64.68 54.912 64.352 53.672 63.696 52.824C63.056 51.96 62.144 51.528 60.96 51.528ZM72.5087 50.328H74.9087C76.4447 50.328 77.6127 50.568 78.4127 51.048C79.2287 51.512 79.6367 52.28 79.6367 53.352C79.6367 54.2 79.3807 54.864 78.8687 55.344C78.3567 55.808 77.5967 56.128 76.5887 56.304C77.7087 56.416 78.5887 56.736 79.2287 57.264C79.8847 57.776 80.2127 58.544 80.2127 59.568C80.2127 60.72 79.7647 61.584 78.8687 62.16C77.9887 62.72 76.6047 63 74.7167 63H68.7167V61.968L70.5887 61.56V51.816L68.7167 51.432V50.4L72.5087 50.328ZM74.5247 51.648H72.5087V55.848H73.9247C75.2847 55.848 76.2527 55.664 76.8287 55.296C77.4207 54.928 77.7167 54.376 77.7167 53.64C77.7167 52.92 77.4527 52.408 76.9247 52.104C76.3967 51.8 75.5967 51.648 74.5247 51.648ZM74.5007 61.656C75.7967 61.656 76.7327 61.48 77.3087 61.128C77.9007 60.776 78.1967 60.192 78.1967 59.376C78.1967 58.592 77.9327 57.992 77.4047 57.576C76.8927 57.16 76.0847 56.952 74.9807 56.952H72.5087V61.656H74.5007ZM88.431 50.112C90.175 50.112 91.551 50.664 92.559 51.768C93.567 52.872 94.071 54.432 94.071 56.448C94.071 57.824 93.831 59.016 93.351 60.024C92.871 61.032 92.175 61.816 91.263 62.376C90.367 62.936 89.287 63.216 88.023 63.216C86.295 63.216 84.943 62.68 83.967 61.608C82.991 60.52 82.503 58.96 82.503 56.928C82.503 55.536 82.735 54.328 83.199 53.304C83.679 52.28 84.359 51.496 85.239 50.952C86.135 50.392 87.199 50.112 88.431 50.112ZM88.335 51.528C87.103 51.528 86.159 51.992 85.503 52.92C84.847 53.848 84.519 55.152 84.519 56.832C84.519 58.48 84.831 59.72 85.455 60.552C86.079 61.384 86.975 61.8 88.143 61.8C89.423 61.8 90.391 61.336 91.047 60.408C91.719 59.48 92.055 58.192 92.055 56.544C92.055 54.912 91.727 53.672 91.071 52.824C90.431 51.96 89.519 51.528 88.335 51.528ZM96.0677 63V61.968L97.9397 61.536V51.816L96.0677 51.408V50.4L101.612 50.256V51.264L99.7877 51.744V59.232L106.46 52.272V51.768L104.612 51.408V50.4L110.156 50.256V51.264L108.284 51.744V61.536L110.156 61.968V63H104.612V61.968L106.436 61.56V53.904L99.7877 61.008V61.608L101.612 61.968V63H96.0677ZM103.124 47.616C102.18 47.616 101.356 47.384 100.652 46.92C99.9477 46.456 99.5637 45.704 99.4997 44.664L101.348 44.544C101.396 45.232 101.612 45.736 101.996 46.056C102.396 46.36 102.868 46.512 103.412 46.512C103.94 46.512 104.38 46.36 104.732 46.056C105.084 45.752 105.252 45.272 105.236 44.616L106.7 44.544C106.7 45.248 106.532 45.832 106.196 46.296C105.876 46.744 105.444 47.08 104.9 47.304C104.372 47.512 103.78 47.616 103.124 47.616Z" fill="#9C9C9C"/>
<path d="M85.4737 13.1683L71.8832 9.12068L63.9631 1.95637C62.5667 0.697393 60.7195 -0.00261161 58.8006 7.32221e-06H43.2848C36.4297 7.32221e-06 33.0303 6.90123 32.1417 9.04647L26.2316 10.5239C25.0247 10.8219 23.9549 11.4939 23.1894 12.4349C22.4238 13.3758 22.0056 14.5328 22 15.7251V21.0005C22 22.0507 22.4362 23.058 23.2125 23.8006C23.9889 24.5432 25.0419 24.9604 26.1399 24.9604H29.6662C29.8781 26.3599 30.6099 27.6396 31.7276 28.5651C32.8454 29.4906 34.2743 30 35.7526 30C37.231 30 38.6599 29.4906 39.7776 28.5651C40.8954 27.6396 41.6272 26.3599 41.839 24.9604H66.0578C66.2696 26.3599 67.0014 27.6396 68.1192 28.5651C69.2369 29.4906 70.6658 30 72.1442 30C73.6226 30 75.0514 29.4906 76.1692 28.5651C77.2869 27.6396 78.0188 26.3599 78.2306 24.9604H84.8601C85.958 24.9604 87.011 24.5432 87.7874 23.8006C88.5638 23.058 89 22.0507 89 21.0005V17.7691C89.0034 16.7424 88.6629 15.7417 88.0283 14.9137C87.3936 14.0857 86.4983 13.474 85.4737 13.1683ZM43.306 2.02383H58.8218C60.2016 2.02148 61.5296 2.52622 62.5315 3.43375L68.4416 8.76988H34.5889C35.809 6.37503 38.6372 2.02383 43.306 2.02383ZM35.7597 27.9962C34.9598 27.9975 34.1775 27.7717 33.5119 27.3475C32.8462 26.9233 32.3272 26.3196 32.0204 25.613C31.7137 24.9064 31.6331 24.1287 31.7888 23.3782C31.9445 22.6277 32.3295 21.9384 32.8951 21.3974C33.4607 20.8563 34.1814 20.4881 34.966 20.3391C35.7505 20.1902 36.5637 20.2673 37.3024 20.5607C38.0411 20.8541 38.6722 21.3506 39.1157 21.9873C39.5592 22.624 39.7952 23.3723 39.7938 24.1374C39.7919 25.1603 39.3663 26.1407 38.6102 26.864C37.854 27.5873 36.829 27.9944 35.7597 27.9962ZM72.1512 27.9962C71.3514 27.9975 70.5691 27.7717 69.9034 27.3475C69.2378 26.9233 68.7187 26.3196 68.412 25.613C68.1053 24.9064 68.0246 24.1287 68.1803 23.3782C68.3361 22.6277 68.7211 21.9384 69.2867 21.3974C69.8523 20.8563 70.573 20.4881 71.3575 20.3391C72.1421 20.1902 72.9552 20.2673 73.6939 20.5607C74.4327 20.8541 75.0637 21.3506 75.5072 21.9873C75.9507 22.624 76.1867 23.3723 76.1853 24.1374C76.1835 25.1603 75.7579 26.1407 75.0017 26.864C74.2456 27.5873 73.2206 27.9944 72.1512 27.9962ZM86.8842 21.0005C86.8823 21.5134 86.6685 22.0049 86.2893 22.3676C85.9101 22.7303 85.3963 22.9348 84.8601 22.9366H78.1671C77.8811 21.6108 77.1257 20.42 76.0285 19.565C74.9313 18.71 73.5594 18.2431 72.1442 18.2431C70.729 18.2431 69.357 18.71 68.2598 19.565C67.1626 20.42 66.4073 21.6108 66.1212 22.9366H41.7474C41.4366 21.6383 40.6743 20.4793 39.5853 19.6492C38.4963 18.8191 37.1451 18.3671 35.7526 18.3671C34.3602 18.3671 33.0089 18.8191 31.9199 19.6492C30.8309 20.4793 30.0687 21.6383 29.7579 22.9366H26.1399C25.6036 22.9348 25.0899 22.7303 24.7107 22.3676C24.3315 22.0049 24.1176 21.5134 24.1158 21.0005V15.7251C24.1194 14.9836 24.3784 14.2639 24.8526 13.6773C25.3269 13.0908 25.99 12.67 26.7394 12.4802L32.7764 10.9893C33.0539 11.0223 33.3341 10.9523 33.5593 10.7937H70.7055C70.7983 10.8645 70.9033 10.9193 71.0158 10.9556L84.8389 15.1044C85.439 15.2823 85.9626 15.6414 86.3313 16.1279C86.7001 16.6144 86.894 17.202 86.8842 17.8029V21.0005Z" fill="#9C9C9C"/>
</svg>
