<svg width="122" height="58" viewBox="0 0 122 58" fill="none" xmlns="http://www.w3.org/2000/svg">
<path d="M16.8089 45.528C14.1849 45.528 11.8009 44.872 9.65688 43.56C7.51288 42.248 5.80088 40.312 4.52088 37.752C3.24088 35.192 2.60088 32.056 2.60088 28.344C2.60088 24.664 3.22488 21.512 4.47288 18.888C5.75288 16.264 7.54488 14.264 9.84888 12.888C12.1529 11.48 14.8409 10.776 17.9129 10.776C21.1449 10.776 24.6969 11.592 28.5689 13.224L28.1849 21.528H24.6809L23.7209 16.44C21.6729 15.704 19.8009 15.336 18.1049 15.336C15.1609 15.336 12.8889 16.424 11.2889 18.6C9.72088 20.776 8.93688 23.768 8.93688 27.576C8.93688 31.928 9.81688 35.208 11.5769 37.416C13.3689 39.624 15.6089 40.728 18.2969 40.728C19.6409 40.728 21.0329 40.456 22.4729 39.912C23.9449 39.336 25.4009 38.456 26.8409 37.272L29.0489 40.728C27.0969 42.36 25.0649 43.576 22.9529 44.376C20.8729 45.144 18.8249 45.528 16.8089 45.528ZM43.8475 18.936C47.5275 18.936 50.4075 20.056 52.4875 22.296C54.5675 24.536 55.6075 27.688 55.6075 31.752C55.6075 34.6 55.0955 37.048 54.0715 39.096C53.0795 41.144 51.6395 42.728 49.7515 43.848C47.8955 44.968 45.6555 45.528 43.0315 45.528C39.3515 45.528 36.4875 44.424 34.4395 42.216C32.4235 40.008 31.4155 36.84 31.4155 32.712C31.4155 28.456 32.5035 25.096 34.6795 22.632C36.8875 20.168 39.9435 18.936 43.8475 18.936ZM43.5595 23.064C39.4635 23.064 37.4155 26.184 37.4155 32.424C37.4155 35.496 37.9115 37.768 38.9035 39.24C39.8955 40.68 41.3675 41.4 43.3195 41.4C45.4315 41.4 47.0155 40.6 48.0715 39C49.1275 37.4 49.6555 35.08 49.6555 32.04C49.6555 26.056 47.6235 23.064 43.5595 23.064ZM58.8798 45V42.024L62.2398 41.064V23.544L58.8798 22.584V19.608L71.2158 19.272V22.248L67.9998 23.304V29.64H72.9918C73.5038 26.152 74.7998 23.496 76.8798 21.672C78.9918 19.848 81.6798 18.936 84.9438 18.936C88.5278 18.936 91.3278 20.024 93.3438 22.2C95.3598 24.376 96.3678 27.544 96.3678 31.704C96.3678 35.992 95.2798 39.368 93.1038 41.832C90.9278 44.296 87.9038 45.528 84.0318 45.528C80.6718 45.528 77.9998 44.552 76.0158 42.6C74.0638 40.648 72.9918 37.72 72.7998 33.816H67.9998V41.16L71.2158 42.024V45H58.8798ZM84.6558 23.064C82.8958 23.064 81.4558 23.784 80.3358 25.224C79.2478 26.664 78.7038 29.064 78.7038 32.424C78.7038 35.656 79.2158 37.96 80.2398 39.336C81.2958 40.712 82.6878 41.4 84.4158 41.4C86.2078 41.4 87.6638 40.664 88.7838 39.192C89.9038 37.688 90.4638 35.272 90.4638 31.944C90.4638 28.776 89.9358 26.504 88.8798 25.128C87.8238 23.752 86.4158 23.064 84.6558 23.064ZM108.253 45.528C106.717 45.528 105.181 45.352 103.645 45C102.141 44.68 100.749 44.184 99.469 43.512L100.621 39.864C101.773 40.44 102.957 40.888 104.173 41.208C105.421 41.496 106.637 41.64 107.821 41.64C109.421 41.64 110.813 41.32 111.997 40.68C113.181 40.008 113.773 38.936 113.773 37.464C113.773 36.312 113.341 35.368 112.477 34.632C111.613 33.896 110.125 33.528 108.013 33.528H104.797V30.072H107.917C109.837 30.072 111.229 29.752 112.093 29.112C112.989 28.44 113.437 27.496 113.437 26.28C113.437 24.968 112.989 24.04 112.093 23.496C111.197 22.952 110.045 22.68 108.637 22.68C107.997 22.68 107.325 22.744 106.621 22.872C105.917 22.968 105.197 23.096 104.461 23.256L103.933 26.568H100.333L100.093 20.424C101.693 19.976 103.293 19.624 104.893 19.368C106.493 19.08 108.045 18.936 109.549 18.936C111.373 18.936 113.005 19.16 114.445 19.608C115.917 20.056 117.069 20.76 117.901 21.72C118.765 22.68 119.197 23.928 119.197 25.464C119.197 28.728 117.229 30.76 113.293 31.56C115.533 31.912 117.165 32.616 118.189 33.672C119.245 34.728 119.773 36.072 119.773 37.704C119.773 39.496 119.229 40.968 118.141 42.12C117.053 43.272 115.629 44.136 113.869 44.712C112.109 45.256 110.237 45.528 108.253 45.528Z" fill="black"/>
</svg>
