<svg width="306" height="58" viewBox="0 0 306 58" fill="none" xmlns="http://www.w3.org/2000/svg">
<path d="M16.8089 45.528C14.1849 45.528 11.8009 44.872 9.65688 43.56C7.51288 42.248 5.80088 40.312 4.52088 37.752C3.24088 35.192 2.60088 32.056 2.60088 28.344C2.60088 24.664 3.22488 21.512 4.47288 18.888C5.75288 16.264 7.54488 14.264 9.84888 12.888C12.1529 11.48 14.8409 10.776 17.9129 10.776C21.1449 10.776 24.6969 11.592 28.5689 13.224L28.1849 21.528H24.6809L23.7209 16.44C21.6729 15.704 19.8009 15.336 18.1049 15.336C15.1609 15.336 12.8889 16.424 11.2889 18.6C9.72088 20.776 8.93688 23.768 8.93688 27.576C8.93688 31.928 9.81688 35.208 11.5769 37.416C13.3689 39.624 15.6089 40.728 18.2969 40.728C19.6409 40.728 21.0329 40.456 22.4729 39.912C23.9449 39.336 25.4009 38.456 26.8409 37.272L29.0489 40.728C27.0969 42.36 25.0649 43.576 22.9529 44.376C20.8729 45.144 18.8249 45.528 16.8089 45.528ZM43.8475 18.936C47.5275 18.936 50.4075 20.056 52.4875 22.296C54.5675 24.536 55.6075 27.688 55.6075 31.752C55.6075 34.6 55.0955 37.048 54.0715 39.096C53.0795 41.144 51.6395 42.728 49.7515 43.848C47.8955 44.968 45.6555 45.528 43.0315 45.528C39.3515 45.528 36.4875 44.424 34.4395 42.216C32.4235 40.008 31.4155 36.84 31.4155 32.712C31.4155 28.456 32.5035 25.096 34.6795 22.632C36.8875 20.168 39.9435 18.936 43.8475 18.936ZM43.5595 23.064C39.4635 23.064 37.4155 26.184 37.4155 32.424C37.4155 35.496 37.9115 37.768 38.9035 39.24C39.8955 40.68 41.3675 41.4 43.3195 41.4C45.4315 41.4 47.0155 40.6 48.0715 39C49.1275 37.4 49.6555 35.08 49.6555 32.04C49.6555 26.056 47.6235 23.064 43.5595 23.064ZM58.8798 45V42.024L62.2398 41.064V23.544L58.8798 22.584V19.608L71.2158 19.272V22.248L67.9998 23.304V29.64H72.9918C73.5038 26.152 74.7998 23.496 76.8798 21.672C78.9918 19.848 81.6798 18.936 84.9438 18.936C88.5278 18.936 91.3278 20.024 93.3438 22.2C95.3598 24.376 96.3678 27.544 96.3678 31.704C96.3678 35.992 95.2798 39.368 93.1038 41.832C90.9278 44.296 87.9038 45.528 84.0318 45.528C80.6718 45.528 77.9998 44.552 76.0158 42.6C74.0638 40.648 72.9918 37.72 72.7998 33.816H67.9998V41.16L71.2158 42.024V45H58.8798ZM84.6558 23.064C82.8958 23.064 81.4558 23.784 80.3358 25.224C79.2478 26.664 78.7038 29.064 78.7038 32.424C78.7038 35.656 79.2158 37.96 80.2398 39.336C81.2958 40.712 82.6878 41.4 84.4158 41.4C86.2078 41.4 87.6638 40.664 88.7838 39.192C89.9038 37.688 90.4638 35.272 90.4638 31.944C90.4638 28.776 89.9358 26.504 88.8798 25.128C87.8238 23.752 86.4158 23.064 84.6558 23.064ZM108.253 45.528C106.717 45.528 105.181 45.352 103.645 45C102.141 44.68 100.749 44.184 99.469 43.512L100.621 39.864C101.773 40.44 102.957 40.888 104.173 41.208C105.421 41.496 106.637 41.64 107.821 41.64C109.421 41.64 110.813 41.32 111.997 40.68C113.181 40.008 113.773 38.936 113.773 37.464C113.773 36.312 113.341 35.368 112.477 34.632C111.613 33.896 110.125 33.528 108.013 33.528H104.797V30.072H107.917C109.837 30.072 111.229 29.752 112.093 29.112C112.989 28.44 113.437 27.496 113.437 26.28C113.437 24.968 112.989 24.04 112.093 23.496C111.197 22.952 110.045 22.68 108.637 22.68C107.997 22.68 107.325 22.744 106.621 22.872C105.917 22.968 105.197 23.096 104.461 23.256L103.933 26.568H100.333L100.093 20.424C101.693 19.976 103.293 19.624 104.893 19.368C106.493 19.08 108.045 18.936 109.549 18.936C111.373 18.936 113.005 19.16 114.445 19.608C115.917 20.056 117.069 20.76 117.901 21.72C118.765 22.68 119.197 23.928 119.197 25.464C119.197 28.728 117.229 30.76 113.293 31.56C115.533 31.912 117.165 32.616 118.189 33.672C119.245 34.728 119.773 36.072 119.773 37.704C119.773 39.496 119.229 40.968 118.141 42.12C117.053 43.272 115.629 44.136 113.869 44.712C112.109 45.256 110.237 45.528 108.253 45.528Z" fill="black"/>
<line x1="140" y1="54" x2="140" y2="4" stroke="black" stroke-width="4"/>
<path d="M163.728 23.264C163.296 23.264 162.784 23.184 162.192 23.024L162.48 21.128C162.816 21.224 163.104 21.272 163.344 21.272C164.096 21.272 164.696 20.984 165.144 20.408C165.608 19.832 165.96 19.064 166.2 18.104C166.456 17.144 166.64 16.072 166.752 14.888C166.864 13.704 166.936 12.496 166.968 11.264C167 10.032 167.04 8.872 167.088 7.784L165 7.4V6.368L168.6 6.248H177.768V7.28L175.68 7.76V21.536L177.768 21.968V23H171.336V21.968L173.736 21.512V7.712L168.648 7.736C168.584 9.128 168.52 10.552 168.456 12.008C168.408 13.464 168.312 14.864 168.168 16.208C168.024 17.552 167.784 18.752 167.448 19.808C167.128 20.864 166.672 21.704 166.08 22.328C165.488 22.952 164.704 23.264 163.728 23.264ZM179.81 23V21.968L181.682 21.536V11.816L179.81 11.408V10.4L185.354 10.256V11.264L183.53 11.744V19.232L190.202 12.272V11.768L188.354 11.408V10.4L193.898 10.256V11.264L192.026 11.744V21.536L193.898 21.968V23H188.354V21.968L190.178 21.56V13.904L183.53 21.008V21.608L185.354 21.968V23H179.81ZM199.901 23.216C199.165 23.216 198.429 23.128 197.693 22.952C196.957 22.776 196.277 22.512 195.653 22.16L196.109 20.912C196.669 21.232 197.269 21.472 197.909 21.632C198.565 21.792 199.197 21.872 199.805 21.872C200.429 21.872 201.005 21.784 201.533 21.608C202.061 21.432 202.485 21.16 202.805 20.792C203.141 20.424 203.309 19.944 203.309 19.352C203.309 18.68 203.045 18.12 202.517 17.672C202.005 17.224 201.085 17 199.757 17H198.173V15.8H199.757C200.909 15.8 201.749 15.6 202.277 15.2C202.805 14.784 203.069 14.232 203.069 13.544C203.069 12.776 202.789 12.232 202.229 11.912C201.685 11.592 200.997 11.432 200.165 11.432C199.765 11.432 199.349 11.464 198.917 11.528C198.485 11.576 198.053 11.656 197.621 11.768L197.357 13.688H196.085L195.989 10.832C196.757 10.608 197.517 10.432 198.269 10.304C199.037 10.176 199.773 10.112 200.477 10.112C201.325 10.112 202.093 10.224 202.781 10.448C203.469 10.656 204.005 11 204.389 11.48C204.789 11.944 204.989 12.552 204.989 13.304C204.989 14.936 204.005 15.944 202.037 16.328C203.173 16.472 203.997 16.824 204.509 17.384C205.037 17.928 205.301 18.608 205.301 19.424C205.301 20.288 205.045 21 204.533 21.56C204.021 22.12 203.357 22.536 202.541 22.808C201.725 23.08 200.845 23.216 199.901 23.216ZM207.232 23V21.968L209.104 21.536V11.816L207.232 11.408V10.4L212.776 10.256V11.264L210.952 11.744V19.232L217.624 12.272V11.768L215.776 11.408V10.4L221.32 10.256V11.264L219.448 11.744V21.536L221.32 21.968V23H215.776V21.968L217.6 21.56V13.904L210.952 21.008V21.608L212.776 21.968V23H207.232ZM223.099 23V21.968L224.971 21.536V11.816L223.099 11.408V10.4L228.715 10.256V11.264L226.891 11.744V15.656H233.395V11.768L231.571 11.408V10.4L237.211 10.256V11.264L235.315 11.744V21.536L237.211 21.968V23H231.571V21.968L233.395 21.56V17.096H226.891V21.56L228.715 21.968V23H223.099ZM249.094 10.328L249.022 14.456H247.822L247.51 11.792H242.782V21.56L245.182 21.968V23H238.99V21.968L240.862 21.56V11.84L238.99 11.432V10.4L242.35 10.328H249.094ZM255.962 10.112C257.706 10.112 259.082 10.664 260.09 11.768C261.098 12.872 261.602 14.432 261.602 16.448C261.602 17.824 261.362 19.016 260.882 20.024C260.402 21.032 259.706 21.816 258.794 22.376C257.898 22.936 256.818 23.216 255.554 23.216C253.826 23.216 252.474 22.68 251.498 21.608C250.522 20.52 250.034 18.96 250.034 16.928C250.034 15.536 250.266 14.328 250.73 13.304C251.21 12.28 251.89 11.496 252.77 10.952C253.666 10.392 254.73 10.112 255.962 10.112ZM255.866 11.528C254.634 11.528 253.69 11.992 253.034 12.92C252.378 13.848 252.05 15.152 252.05 16.832C252.05 18.48 252.362 19.72 252.986 20.552C253.61 21.384 254.506 21.8 255.674 21.8C256.954 21.8 257.922 21.336 258.578 20.408C259.25 19.48 259.586 18.192 259.586 16.544C259.586 14.912 259.258 13.672 258.602 12.824C257.962 11.96 257.05 11.528 255.866 11.528ZM267.415 10.328H269.815C271.351 10.328 272.519 10.568 273.319 11.048C274.135 11.512 274.543 12.28 274.543 13.352C274.543 14.2 274.287 14.864 273.775 15.344C273.263 15.808 272.503 16.128 271.495 16.304C272.615 16.416 273.495 16.736 274.135 17.264C274.791 17.776 275.119 18.544 275.119 19.568C275.119 20.72 274.671 21.584 273.775 22.16C272.895 22.72 271.511 23 269.623 23H263.623V21.968L265.495 21.56V11.816L263.623 11.432V10.4L267.415 10.328ZM269.431 11.648H267.415V15.848H268.831C270.191 15.848 271.159 15.664 271.735 15.296C272.327 14.928 272.623 14.376 272.623 13.64C272.623 12.92 272.359 12.408 271.831 12.104C271.303 11.8 270.503 11.648 269.431 11.648ZM269.407 21.656C270.703 21.656 271.639 21.48 272.215 21.128C272.807 20.776 273.103 20.192 273.103 19.376C273.103 18.592 272.839 17.992 272.311 17.576C271.799 17.16 270.991 16.952 269.887 16.952H267.415V21.656H269.407ZM285.593 23.12L285.329 21.032C284.641 21.752 283.897 22.296 283.097 22.664C282.313 23.032 281.553 23.216 280.817 23.216C279.889 23.216 279.105 22.92 278.465 22.328C277.825 21.72 277.505 20.816 277.505 19.616C277.505 18.704 277.697 17.992 278.081 17.48C278.481 16.952 279.033 16.584 279.737 16.376C280.441 16.168 281.265 16.064 282.209 16.064H285.137V14.024C285.137 13.16 284.905 12.536 284.441 12.152C283.977 11.768 283.337 11.576 282.521 11.576C281.721 11.576 280.833 11.736 279.857 12.056L279.665 14H278.369L278.177 11.024C279.089 10.72 279.945 10.496 280.745 10.352C281.545 10.192 282.289 10.112 282.977 10.112C284.241 10.112 285.233 10.4 285.953 10.976C286.689 11.536 287.057 12.44 287.057 13.688V21.56L288.953 21.92V22.976L285.593 23.12ZM279.449 19.472C279.449 20.256 279.633 20.832 280.001 21.2C280.385 21.568 280.865 21.752 281.441 21.752C281.985 21.752 282.585 21.592 283.241 21.272C283.897 20.952 284.529 20.512 285.137 19.952V17.336H282.497C281.361 17.336 280.569 17.512 280.121 17.864C279.673 18.2 279.449 18.736 279.449 19.472ZM289.67 23V21.968L291.47 21.584L292.502 19.136C292.694 18.688 292.934 18.344 293.222 18.104C293.51 17.864 293.854 17.696 294.254 17.6C293.294 17.44 292.55 17.08 292.022 16.52C291.51 15.96 291.254 15.168 291.254 14.144C291.254 12.848 291.662 11.888 292.478 11.264C293.31 10.64 294.422 10.328 295.814 10.328H301.814V11.36L299.942 11.792V21.56L301.814 21.968V23H296.222V21.968L298.022 21.584V17.936H296.462C295.902 17.936 295.438 18.056 295.07 18.296C294.702 18.52 294.406 18.928 294.182 19.52L292.814 23H289.67ZM296.39 16.712H298.022V11.624H296.006C295.174 11.624 294.486 11.816 293.942 12.2C293.414 12.568 293.15 13.216 293.15 14.144C293.15 15.088 293.414 15.752 293.942 16.136C294.47 16.52 295.286 16.712 296.39 16.712ZM162.888 52V50.968L164.76 50.56V40.768L162.888 40.408V39.4L168.456 39.256V40.264L166.68 40.696V44.68H169.296L171.696 40.672L169.992 40.432V39.4L175.272 39.232V40.264L173.544 40.6L170.808 45.136L174.12 50.608L175.944 50.968V52H172.896L169.368 46.024H166.68V50.536L168.744 50.968V52H162.888ZM182.298 39.112C184.042 39.112 185.418 39.664 186.426 40.768C187.434 41.872 187.938 43.432 187.938 45.448C187.938 46.824 187.698 48.016 187.218 49.024C186.738 50.032 186.042 50.816 185.13 51.376C184.234 51.936 183.154 52.216 181.89 52.216C180.162 52.216 178.81 51.68 177.834 50.608C176.858 49.52 176.37 47.96 176.37 45.928C176.37 44.536 176.602 43.328 177.066 42.304C177.546 41.28 178.226 40.496 179.106 39.952C180.002 39.392 181.066 39.112 182.298 39.112ZM182.202 40.528C180.97 40.528 180.026 40.992 179.37 41.92C178.714 42.848 178.386 44.152 178.386 45.832C178.386 47.48 178.698 48.72 179.322 49.552C179.946 50.384 180.842 50.8 182.01 50.8C183.29 50.8 184.258 50.336 184.914 49.408C185.586 48.48 185.922 47.192 185.922 45.544C185.922 43.912 185.594 42.672 184.938 41.824C184.298 40.96 183.386 40.528 182.202 40.528ZM195.143 50.968V52H189.935V50.968L191.807 50.56V40.84L189.935 40.408V39.4L193.967 39.256L198.071 47.8L202.247 39.4L206.255 39.256V40.264L204.359 40.768V50.56L206.255 50.968V52H200.903V50.968L202.655 50.56V41.512L198.455 49.984L197.495 50.056L193.343 41.608V50.56L195.143 50.968ZM208.005 52V50.968L209.877 50.536V40.84L208.005 40.408V39.4L211.677 39.328H221.997V40.36L220.125 40.84V50.536L221.997 50.968V52H216.405V50.968L218.205 50.56V40.792L211.797 40.768V50.56L213.597 50.968V52H208.005ZM232.203 52.12L231.939 50.032C231.251 50.752 230.507 51.296 229.707 51.664C228.923 52.032 228.163 52.216 227.427 52.216C226.499 52.216 225.715 51.92 225.075 51.328C224.435 50.72 224.115 49.816 224.115 48.616C224.115 47.704 224.307 46.992 224.691 46.48C225.091 45.952 225.643 45.584 226.347 45.376C227.051 45.168 227.875 45.064 228.819 45.064H231.747V43.024C231.747 42.16 231.515 41.536 231.051 41.152C230.587 40.768 229.947 40.576 229.131 40.576C228.331 40.576 227.443 40.736 226.467 41.056L226.275 43H224.979L224.787 40.024C225.699 39.72 226.555 39.496 227.355 39.352C228.155 39.192 228.899 39.112 229.587 39.112C230.851 39.112 231.843 39.4 232.563 39.976C233.299 40.536 233.667 41.44 233.667 42.688V50.56L235.563 50.92V51.976L232.203 52.12ZM226.059 48.472C226.059 49.256 226.243 49.832 226.611 50.2C226.995 50.568 227.475 50.752 228.051 50.752C228.595 50.752 229.195 50.592 229.851 50.272C230.507 49.952 231.139 49.512 231.747 48.952V46.336H229.107C227.971 46.336 227.179 46.512 226.731 46.864C226.283 47.2 226.059 47.736 226.059 48.472ZM236.927 52V50.968L238.799 50.536V40.816L236.927 40.408V39.4L242.543 39.256V40.264L240.719 40.744V44.656H247.223V40.768L245.399 40.408V39.4L251.039 39.256V40.264L249.143 40.744V50.536L251.039 50.968V52H245.399V50.968L247.223 50.56V46.096H240.719V50.56L242.543 50.968V52H236.927ZM252.794 52V50.968L254.666 50.536V40.816L252.794 40.408V39.4L258.338 39.256V40.264L256.514 40.744V48.232L263.186 41.272V40.768L261.338 40.408V39.4L266.882 39.256V40.264L265.01 40.744V50.536L266.882 50.968V52H261.338V50.968L263.162 50.56V42.904L256.514 50.008V50.608L258.338 50.968V52H252.794ZM268.013 52V50.968L269.813 50.584L270.845 48.136C271.037 47.688 271.277 47.344 271.565 47.104C271.853 46.864 272.197 46.696 272.597 46.6C271.637 46.44 270.893 46.08 270.365 45.52C269.853 44.96 269.597 44.168 269.597 43.144C269.597 41.848 270.005 40.888 270.821 40.264C271.653 39.64 272.765 39.328 274.157 39.328H280.157V40.36L278.285 40.792V50.56L280.157 50.968V52H274.565V50.968L276.365 50.584V46.936H274.805C274.245 46.936 273.781 47.056 273.413 47.296C273.045 47.52 272.749 47.928 272.525 48.52L271.157 52H268.013ZM274.733 45.712H276.365V40.624H274.349C273.517 40.624 272.829 40.816 272.285 41.2C271.757 41.568 271.493 42.216 271.493 43.144C271.493 44.088 271.757 44.752 272.285 45.136C272.813 45.52 273.629 45.712 274.733 45.712Z" fill="black"/>
</svg>
