<svg width="33" height="36" viewBox="0 0 33 36" fill="none" xmlns="http://www.w3.org/2000/svg">
<path d="M19.9951 30.3604H12.1338V36H5.98145V30.3604H0.976562V25.4043H5.98145V22.792H0.976562V17.8359H5.98145V0.453125H19.5801C23.5026 0.453125 26.6357 1.47852 28.9795 3.5293C31.3232 5.5638 32.4951 8.27376 32.4951 11.6592C32.4951 15.1097 31.3802 17.8197 29.1504 19.7891C26.9206 21.7422 23.82 22.7432 19.8486 22.792H12.1338V25.4043H19.9951V30.3604ZM12.1338 17.8359H19.4824C21.696 17.8359 23.3887 17.3232 24.5605 16.2979C25.7324 15.2725 26.3184 13.7425 26.3184 11.708C26.3184 9.88509 25.7406 8.39583 24.585 7.24023C23.4456 6.08464 21.8669 5.48242 19.8486 5.43359H12.1338V17.8359Z" fill="#FFD700"/>
<path d="M19.9951 30.3604H12.1338V36H5.98145V30.3604H0.976562V25.4043H5.98145V22.792H0.976562V17.8359H5.98145V0.453125H19.5801C23.5026 0.453125 26.6357 1.47852 28.9795 3.5293C31.3232 5.5638 32.4951 8.27376 32.4951 11.6592C32.4951 15.1097 31.3802 17.8197 29.1504 19.7891C26.9206 21.7422 23.82 22.7432 19.8486 22.792H12.1338V25.4043H19.9951V30.3604ZM12.1338 17.8359H19.4824C21.696 17.8359 23.3887 17.3232 24.5605 16.2979C25.7324 15.2725 26.3184 13.7425 26.3184 11.708C26.3184 9.88509 25.7406 8.39583 24.585 7.24023C23.4456 6.08464 21.8669 5.48242 19.8486 5.43359H12.1338V17.8359Z" fill="url(#paint0_linear)"/>
<defs>
<linearGradient id="paint0_linear" x1="17.5" y1="-6" x2="17.5" y2="44" gradientUnits="userSpaceOnUse">
<stop stop-color="#F4BF06"/>
<stop offset="1" stop-color="white" stop-opacity="0"/>
</linearGradient>
</defs>
</svg>
