<svg width="112" height="78" viewBox="0 0 112 78" fill="none" xmlns="http://www.w3.org/2000/svg">
<path d="M1.176 72V70.968L3.24 70.536V56.784L1.176 56.4V55.368L5.184 55.248H12.768V59.448H11.568L11.136 56.712H5.208V70.536L7.728 70.968V72H1.176ZM13.4214 77.52V76.488L15.2934 76.056V60.84L13.4214 60.432V59.4L16.7814 59.232L16.9974 61.008C18.4054 59.744 19.8054 59.112 21.1974 59.112C22.0934 59.112 22.8934 59.36 23.5974 59.856C24.3174 60.336 24.8854 61.048 25.3014 61.992C25.7174 62.936 25.9254 64.088 25.9254 65.448C25.9254 67.672 25.3654 69.36 24.2454 70.512C23.1414 71.664 21.6694 72.24 19.8294 72.24C19.4134 72.24 18.9894 72.208 18.5574 72.144C18.1254 72.08 17.6774 71.992 17.2134 71.88V76.056L19.4214 76.488V77.52H13.4214ZM19.6134 70.8C21.0214 70.8 22.0934 70.352 22.8294 69.456C23.5654 68.544 23.9334 67.272 23.9334 65.64C23.9334 64.056 23.6054 62.816 22.9494 61.92C22.3094 61.024 21.5014 60.576 20.5254 60.576C20.0134 60.576 19.4694 60.704 18.8934 60.96C18.3334 61.216 17.7734 61.608 17.2134 62.136V70.416C18.0774 70.672 18.8774 70.8 19.6134 70.8ZM26.9616 77.616L27.1296 76.2C27.3216 76.232 27.4976 76.256 27.6576 76.272C27.8336 76.288 27.9936 76.296 28.1376 76.296C28.8896 76.296 29.4976 76.128 29.9616 75.792C30.4416 75.472 30.8416 74.984 31.1616 74.328C31.4976 73.688 31.8256 72.888 32.1456 71.928L27.8256 60.672L26.4576 60.432V59.4L31.7136 59.232V60.288L29.7696 60.624L33.0336 69.936L36.2016 60.672L34.3056 60.432V59.4L39.3936 59.232V60.288L38.0016 60.6L33.8256 72.048C33.4416 73.12 33.0336 74.08 32.6016 74.928C32.1696 75.792 31.6176 76.472 30.9456 76.968C30.2896 77.48 29.4096 77.736 28.3056 77.736C27.9216 77.736 27.4736 77.696 26.9616 77.616ZM44.1823 72.216C43.4463 72.216 42.7103 72.128 41.9743 71.952C41.2383 71.776 40.5583 71.512 39.9343 71.16L40.3903 69.912C40.9503 70.232 41.5503 70.472 42.1903 70.632C42.8463 70.792 43.4783 70.872 44.0863 70.872C44.7103 70.872 45.2863 70.784 45.8143 70.608C46.3423 70.432 46.7663 70.16 47.0863 69.792C47.4223 69.424 47.5903 68.944 47.5903 68.352C47.5903 67.68 47.3263 67.12 46.7983 66.672C46.2863 66.224 45.3663 66 44.0383 66H42.4543V64.8H44.0383C45.1903 64.8 46.0303 64.6 46.5583 64.2C47.0863 63.784 47.3503 63.232 47.3503 62.544C47.3503 61.776 47.0703 61.232 46.5103 60.912C45.9663 60.592 45.2783 60.432 44.4463 60.432C44.0463 60.432 43.6303 60.464 43.1983 60.528C42.7663 60.576 42.3343 60.656 41.9023 60.768L41.6383 62.688H40.3663L40.2703 59.832C41.0383 59.608 41.7983 59.432 42.5503 59.304C43.3183 59.176 44.0543 59.112 44.7583 59.112C45.6063 59.112 46.3743 59.224 47.0623 59.448C47.7503 59.656 48.2863 60 48.6703 60.48C49.0703 60.944 49.2703 61.552 49.2703 62.304C49.2703 63.936 48.2863 64.944 46.3183 65.328C47.4543 65.472 48.2783 65.824 48.7903 66.384C49.3183 66.928 49.5823 67.608 49.5823 68.424C49.5823 69.288 49.3263 70 48.8143 70.56C48.3023 71.12 47.6383 71.536 46.8223 71.808C46.0063 72.08 45.1263 72.216 44.1823 72.216ZM57.9154 59.112C59.6594 59.112 61.0354 59.664 62.0434 60.768C63.0514 61.872 63.5554 63.432 63.5554 65.448C63.5554 66.824 63.3154 68.016 62.8354 69.024C62.3554 70.032 61.6594 70.816 60.7474 71.376C59.8514 71.936 58.7714 72.216 57.5074 72.216C55.7794 72.216 54.4274 71.68 53.4514 70.608C52.4754 69.52 51.9874 67.96 51.9874 65.928C51.9874 64.536 52.2194 63.328 52.6834 62.304C53.1634 61.28 53.8434 60.496 54.7234 59.952C55.6194 59.392 56.6834 59.112 57.9154 59.112ZM57.8194 60.528C56.5874 60.528 55.6434 60.992 54.9874 61.92C54.3314 62.848 54.0034 64.152 54.0034 65.832C54.0034 67.48 54.3154 68.72 54.9394 69.552C55.5634 70.384 56.4594 70.8 57.6274 70.8C58.9074 70.8 59.8754 70.336 60.5314 69.408C61.2034 68.48 61.5394 67.192 61.5394 65.544C61.5394 63.912 61.2114 62.672 60.5554 61.824C59.9154 60.96 59.0034 60.528 57.8194 60.528ZM69.3681 59.328H71.7681C73.3041 59.328 74.4721 59.568 75.2721 60.048C76.0881 60.512 76.4961 61.28 76.4961 62.352C76.4961 63.2 76.2401 63.864 75.7281 64.344C75.2161 64.808 74.4561 65.128 73.4481 65.304C74.5681 65.416 75.4481 65.736 76.0881 66.264C76.7441 66.776 77.0721 67.544 77.0721 68.568C77.0721 69.72 76.6241 70.584 75.7281 71.16C74.8481 71.72 73.4641 72 71.5761 72H65.5761V70.968L67.4481 70.56V60.816L65.5761 60.432V59.4L69.3681 59.328ZM71.3841 60.648H69.3681V64.848H70.7841C72.1441 64.848 73.1121 64.664 73.6881 64.296C74.2801 63.928 74.5761 63.376 74.5761 62.64C74.5761 61.92 74.3121 61.408 73.7841 61.104C73.2561 60.8 72.4561 60.648 71.3841 60.648ZM71.3601 70.656C72.6561 70.656 73.5921 70.48 74.1681 70.128C74.7601 69.776 75.0561 69.192 75.0561 68.376C75.0561 67.592 74.7921 66.992 74.2641 66.576C73.7521 66.16 72.9441 65.952 71.8401 65.952H69.3681V70.656H71.3601ZM85.2904 59.112C87.0344 59.112 88.4104 59.664 89.4184 60.768C90.4264 61.872 90.9304 63.432 90.9304 65.448C90.9304 66.824 90.6904 68.016 90.2104 69.024C89.7304 70.032 89.0344 70.816 88.1224 71.376C87.2264 71.936 86.1464 72.216 84.8824 72.216C83.1544 72.216 81.8024 71.68 80.8264 70.608C79.8504 69.52 79.3624 67.96 79.3624 65.928C79.3624 64.536 79.5944 63.328 80.0584 62.304C80.5384 61.28 81.2184 60.496 82.0984 59.952C82.9944 59.392 84.0584 59.112 85.2904 59.112ZM85.1944 60.528C83.9624 60.528 83.0184 60.992 82.3624 61.92C81.7064 62.848 81.3784 64.152 81.3784 65.832C81.3784 67.48 81.6904 68.72 82.3144 69.552C82.9384 70.384 83.8344 70.8 85.0024 70.8C86.2824 70.8 87.2504 70.336 87.9064 69.408C88.5784 68.48 88.9144 67.192 88.9144 65.544C88.9144 63.912 88.5864 62.672 87.9304 61.824C87.2904 60.96 86.3784 60.528 85.1944 60.528ZM92.9271 72V70.968L94.7991 70.536V60.816L92.9271 60.408V59.4L98.4711 59.256V60.264L96.6471 60.744V68.232L103.319 61.272V60.768L101.471 60.408V59.4L107.015 59.256V60.264L105.143 60.744V70.536L107.015 70.968V72H101.471V70.968L103.295 70.56V62.904L96.6471 70.008V70.608L98.4711 70.968V72H92.9271ZM99.9831 56.616C99.0391 56.616 98.2151 56.384 97.5111 55.92C96.8071 55.456 96.4231 54.704 96.3591 53.664L98.2071 53.544C98.2551 54.232 98.4711 54.736 98.8551 55.056C99.2551 55.36 99.7271 55.512 100.271 55.512C100.799 55.512 101.239 55.36 101.591 55.056C101.943 54.752 102.111 54.272 102.095 53.616L103.559 53.544C103.559 54.248 103.391 54.832 103.055 55.296C102.735 55.744 102.303 56.08 101.759 56.304C101.231 56.512 100.639 56.616 99.9831 56.616Z" fill="#9C9C9C"/>
<path d="M86.8098 18.8916L82.3993 12.6449C81.7433 11.7185 80.8673 10.9614 79.8464 10.4384C78.8255 9.91541 77.6901 9.64217 76.5375 9.64207H65.1591V1.03308C65.1591 0.759089 65.0477 0.496322 64.8496 0.302582C64.6514 0.108842 64.3826 0 64.1023 0H26.0568C25.7765 0 25.5077 0.108842 25.3095 0.302582C25.1113 0.496322 25 0.759089 25 1.03308V33.4029C25 33.6769 25.1113 33.9396 25.3095 34.1334C25.5077 34.3271 25.7765 34.436 26.0568 34.436H34.7861C34.9559 35.6985 35.5895 36.8576 36.5688 37.6973C37.5481 38.537 38.8063 39 40.109 39C41.4116 39 42.6698 38.537 43.6492 37.6973C44.6285 36.8576 45.262 35.6985 45.4318 34.436H69.02C69.2116 35.6801 69.8534 36.8158 70.8289 37.6365C71.8044 38.4573 73.0487 38.9087 74.3358 38.9087C75.6229 38.9087 76.8672 38.4573 77.8427 37.6365C78.8182 36.8158 79.46 35.6801 79.6516 34.436H85.9432C86.2235 34.436 86.4923 34.3271 86.6905 34.1334C86.8887 33.9396 87 33.6769 87 33.4029V19.477C87.0006 19.2672 86.9341 19.0625 86.8098 18.8916ZM76.5375 11.7082C77.3484 11.7077 78.1472 11.8999 78.8652 12.2682C79.5832 12.6366 80.1988 13.17 80.6591 13.8226L84.0339 18.5954H65.1591V11.7082H76.5375ZM40.1055 36.8465C39.458 36.8492 38.8243 36.6639 38.2847 36.3141C37.7451 35.9644 37.3239 35.4658 37.0745 34.8817C36.8251 34.2976 36.7588 33.6543 36.8839 33.0333C37.009 32.4123 37.3199 31.8417 37.7773 31.3936C38.2346 30.9456 38.8177 30.6404 39.4527 30.5168C40.0877 30.3931 40.746 30.4566 41.344 30.6991C41.9421 30.9416 42.453 31.3523 42.8119 31.879C43.1709 32.4057 43.3618 33.0248 43.3605 33.6577C43.3586 34.5017 43.0153 35.3107 42.4055 35.9081C41.7956 36.5055 40.9688 36.8428 40.1055 36.8465ZM40.1055 28.3959C38.9035 28.3921 37.7348 28.7812 36.7851 29.5012C35.8353 30.2212 35.159 31.2309 34.8636 32.3698H27.1136V2.06616H63.0455V32.3698H45.305C45.0125 31.2372 44.3428 30.2319 43.4014 29.5124C42.46 28.7929 41.3004 28.4001 40.1055 28.3959ZM74.3182 36.8465C73.6713 36.8465 73.039 36.6589 72.5012 36.3074C71.9635 35.956 71.5445 35.4565 71.2973 34.8722C71.05 34.2878 70.9857 33.6449 71.1124 33.0248C71.2391 32.4048 71.5512 31.8354 72.0091 31.3887C72.467 30.9421 73.0501 30.6383 73.6847 30.5157C74.3193 30.3932 74.9769 30.4575 75.5741 30.7004C76.1713 30.9433 76.6814 31.354 77.0398 31.8804C77.3981 32.4069 77.5887 33.0254 77.5873 33.6577C77.5854 34.5041 77.2402 35.3151 76.6273 35.9129C76.0144 36.5107 75.184 36.8465 74.3182 36.8465ZM79.5318 32.3698C79.2427 31.2328 78.5727 30.223 77.6285 29.5014C76.6843 28.7797 75.5202 28.3877 74.3217 28.3877C73.1232 28.3877 71.9591 28.7797 71.0149 29.5014C70.0707 30.223 69.4007 31.2328 69.1116 32.3698H65.1591V20.6616H84.8864V32.3698H79.5318Z" fill="#9C9C9C"/>
</svg>
