<svg width="24" height="48" viewBox="0 0 24 48" fill="none" xmlns="http://www.w3.org/2000/svg">
<path d="M17.9951 32.7227C17.9951 31.3392 17.5557 30.1999 16.6768 29.3047C15.7979 28.3932 14.333 27.5794 12.2822 26.8633C10.2314 26.1309 8.63639 25.4554 7.49707 24.8369C3.70475 22.8024 1.80859 19.7913 1.80859 15.8037C1.80859 13.1019 2.63053 10.8802 4.27441 9.13867C5.91829 7.39714 8.14811 6.36361 10.9639 6.03809V0.71582H14.8701V6.08691C17.7021 6.49382 19.8913 7.69824 21.4375 9.7002C22.9837 11.6859 23.7568 14.2738 23.7568 17.4639H17.8486C17.8486 15.4131 17.3848 13.8018 16.457 12.6299C15.5456 11.4417 14.3005 10.8477 12.7217 10.8477C11.1592 10.8477 9.93848 11.2708 9.05957 12.1172C8.18066 12.9635 7.74121 14.1761 7.74121 15.7549C7.74121 17.1709 8.17253 18.3102 9.03516 19.1729C9.91406 20.0192 11.3952 20.8249 13.4785 21.5898C15.5618 22.3548 17.1976 23.0628 18.3857 23.7139C19.5739 24.3649 20.5749 25.1136 21.3887 25.96C22.2025 26.79 22.8291 27.7503 23.2686 28.8408C23.708 29.9313 23.9277 31.209 23.9277 32.6738C23.9277 35.4245 23.0814 37.6543 21.3887 39.3633C19.7122 41.0723 17.3685 42.0814 14.3574 42.3906V47.1514H10.4756V42.415C7.25293 42.057 4.77083 40.9014 3.0293 38.9482C1.30404 36.9951 0.441406 34.4072 0.441406 31.1846H6.37402C6.37402 33.2354 6.88672 34.8223 7.91211 35.9453C8.95378 37.0684 10.4186 37.6299 12.3066 37.6299C14.1621 37.6299 15.57 37.1823 16.5303 36.2871C17.5068 35.3919 17.9951 34.2038 17.9951 32.7227Z" fill="#FFD700"/>
<path d="M17.9951 32.7227C17.9951 31.3392 17.5557 30.1999 16.6768 29.3047C15.7979 28.3932 14.333 27.5794 12.2822 26.8633C10.2314 26.1309 8.63639 25.4554 7.49707 24.8369C3.70475 22.8024 1.80859 19.7913 1.80859 15.8037C1.80859 13.1019 2.63053 10.8802 4.27441 9.13867C5.91829 7.39714 8.14811 6.36361 10.9639 6.03809V0.71582H14.8701V6.08691C17.7021 6.49382 19.8913 7.69824 21.4375 9.7002C22.9837 11.6859 23.7568 14.2738 23.7568 17.4639H17.8486C17.8486 15.4131 17.3848 13.8018 16.457 12.6299C15.5456 11.4417 14.3005 10.8477 12.7217 10.8477C11.1592 10.8477 9.93848 11.2708 9.05957 12.1172C8.18066 12.9635 7.74121 14.1761 7.74121 15.7549C7.74121 17.1709 8.17253 18.3102 9.03516 19.1729C9.91406 20.0192 11.3952 20.8249 13.4785 21.5898C15.5618 22.3548 17.1976 23.0628 18.3857 23.7139C19.5739 24.3649 20.5749 25.1136 21.3887 25.96C22.2025 26.79 22.8291 27.7503 23.2686 28.8408C23.708 29.9313 23.9277 31.209 23.9277 32.6738C23.9277 35.4245 23.0814 37.6543 21.3887 39.3633C19.7122 41.0723 17.3685 42.0814 14.3574 42.3906V47.1514H10.4756V42.415C7.25293 42.057 4.77083 40.9014 3.0293 38.9482C1.30404 36.9951 0.441406 34.4072 0.441406 31.1846H6.37402C6.37402 33.2354 6.88672 34.8223 7.91211 35.9453C8.95378 37.0684 10.4186 37.6299 12.3066 37.6299C14.1621 37.6299 15.57 37.1823 16.5303 36.2871C17.5068 35.3919 17.9951 34.2038 17.9951 32.7227Z" fill="url(#paint0_linear)"/>
<defs>
<linearGradient id="paint0_linear" x1="13" y1="0" x2="13" y2="50" gradientUnits="userSpaceOnUse">
<stop stop-color="#F4BF06"/>
<stop offset="1" stop-color="white" stop-opacity="0"/>
</linearGradient>
</defs>
</svg>
