<svg width="156" height="84" viewBox="0 0 156 84" fill="none" xmlns="http://www.w3.org/2000/svg">
<path d="M8.4 80.216C7.12 80.216 5.952 79.888 4.896 79.232C3.84 78.576 3 77.616 2.376 76.352C1.768 75.088 1.464 73.536 1.464 71.696C1.464 69.888 1.776 68.336 2.4 67.04C3.024 65.744 3.896 64.752 5.016 64.064C6.136 63.376 7.44 63.032 8.928 63.032C9.712 63.032 10.536 63.128 11.4 63.32C12.264 63.512 13.168 63.816 14.112 64.232L13.944 68H12.768L12.384 65.288C11.776 65.064 11.176 64.896 10.584 64.784C10.008 64.656 9.464 64.592 8.952 64.592C7.304 64.592 5.992 65.208 5.016 66.44C4.056 67.656 3.576 69.328 3.576 71.456C3.576 72.992 3.808 74.288 4.272 75.344C4.736 76.4 5.368 77.208 6.168 77.768C6.984 78.312 7.896 78.584 8.904 78.584C9.64 78.584 10.408 78.424 11.208 78.104C12.024 77.784 12.808 77.296 13.56 76.64L14.352 77.816C13.424 78.632 12.44 79.24 11.4 79.64C10.376 80.024 9.376 80.216 8.4 80.216ZM15.6771 80V78.968L17.5491 78.536V68.84L15.6771 68.408V67.4L19.3491 67.328H29.6691V68.36L27.7971 68.84V78.536L29.6691 78.968V80H24.0771V78.968L25.8771 78.56V68.792L19.4691 68.768V78.56L21.2691 78.968V80H15.6771ZM37.1865 80.216C36.1145 80.216 35.1625 79.976 34.3305 79.496C33.5145 79 32.8745 78.28 32.4105 77.336C31.9465 76.392 31.7145 75.232 31.7145 73.856C31.7145 72.48 31.9545 71.288 32.4345 70.28C32.9145 69.272 33.5865 68.496 34.4505 67.952C35.3305 67.392 36.3705 67.112 37.5705 67.112C38.6905 67.112 39.6105 67.352 40.3305 67.832C41.0665 68.296 41.6105 68.944 41.9625 69.776C42.3305 70.608 42.5145 71.56 42.5145 72.632C42.5145 72.808 42.5065 72.992 42.4905 73.184C42.4745 73.36 42.4585 73.568 42.4425 73.808H33.7065C33.7385 75.312 34.0905 76.512 34.7625 77.408C35.4345 78.288 36.3945 78.728 37.6425 78.728C38.2345 78.728 38.8825 78.616 39.5865 78.392C40.2905 78.152 41.0185 77.792 41.7705 77.312L42.4665 78.392C41.5705 79.016 40.6745 79.48 39.7785 79.784C38.8825 80.072 38.0185 80.216 37.1865 80.216ZM37.4265 68.576C36.3705 68.576 35.5305 68.936 34.9065 69.656C34.2985 70.36 33.9225 71.288 33.7785 72.44H40.5225C40.5385 71.752 40.4425 71.12 40.2345 70.544C40.0265 69.952 39.6905 69.48 39.2265 69.128C38.7785 68.76 38.1785 68.576 37.4265 68.576ZM58.9749 78.92V83.792H57.7269L57.1989 80H44.6229V78.968L46.4949 78.536V68.816L44.6229 68.408V67.4L50.2149 67.256V68.264L48.4149 68.744V78.536H54.5349V68.768L52.7349 68.408V67.4L58.3269 67.256V68.264L56.4549 68.744V78.536L58.9749 78.92ZM62.0151 80V78.968L64.2471 78.608V68.792H60.9831L60.6231 71.024H59.4231V67.328H70.9911V71.024H69.7911L69.4311 68.792H66.1671V78.584L68.4471 78.968V80H62.0151ZM77.4521 80.216C76.3801 80.216 75.4281 79.976 74.5961 79.496C73.7801 79 73.1401 78.28 72.6761 77.336C72.2121 76.392 71.9801 75.232 71.9801 73.856C71.9801 72.48 72.2201 71.288 72.7001 70.28C73.1801 69.272 73.8521 68.496 74.7161 67.952C75.5961 67.392 76.6361 67.112 77.8361 67.112C78.9561 67.112 79.8761 67.352 80.5961 67.832C81.3321 68.296 81.8761 68.944 82.2281 69.776C82.5961 70.608 82.7801 71.56 82.7801 72.632C82.7801 72.808 82.7721 72.992 82.7561 73.184C82.7401 73.36 82.7241 73.568 82.7081 73.808H73.9721C74.0041 75.312 74.3561 76.512 75.0281 77.408C75.7001 78.288 76.6601 78.728 77.9081 78.728C78.5001 78.728 79.1481 78.616 79.8521 78.392C80.5561 78.152 81.2841 77.792 82.0361 77.312L82.7321 78.392C81.8361 79.016 80.9401 79.48 80.0441 79.784C79.1481 80.072 78.2841 80.216 77.4521 80.216ZM77.6921 68.576C76.6361 68.576 75.7961 68.936 75.1721 69.656C74.5641 70.36 74.1881 71.288 74.0441 72.44H80.7881C80.8041 71.752 80.7081 71.12 80.5001 70.544C80.2921 69.952 79.9561 69.48 79.4921 69.128C79.0441 68.76 78.4441 68.576 77.6921 68.576ZM83.4197 80V78.968L85.1477 78.632L88.6757 73.544L85.2917 68.696L83.6837 68.432V67.4L88.8197 67.232V68.288L87.3077 68.552L89.8757 72.32L93.1637 67.4L95.8517 67.232V68.288L94.1717 68.648L90.7157 73.568L94.2917 78.632L96.0917 78.968V80H90.7397V78.968L92.2277 78.728L89.5397 74.816L86.1077 80H83.4197ZM96.9583 80V78.968L98.8303 78.536V68.816L96.9583 68.408V67.4L102.574 67.256V68.264L100.75 68.744V72.656H107.254V68.768L105.43 68.408V67.4L111.07 67.256V68.264L109.174 68.744V78.536L111.07 78.968V80H105.43V78.968L107.254 78.56V74.096H100.75V78.56L102.574 78.968V80H96.9583ZM112.826 80V78.968L114.698 78.536V68.816L112.826 68.408V67.4L118.37 67.256V68.264L116.546 68.744V76.232L123.218 69.272V68.768L121.37 68.408V67.4L126.914 67.256V68.264L125.042 68.744V78.536L126.914 78.968V80H121.37V78.968L123.194 78.56V70.904L116.546 78.008V78.608L118.37 78.968V80H112.826ZM128.693 80V78.968L130.565 78.56V68.768L128.693 68.408V67.4L134.261 67.256V68.264L132.485 68.696V72.68H135.101L137.501 68.672L135.797 68.432V67.4L141.077 67.232V68.264L139.349 68.6L136.613 73.136L139.925 78.608L141.749 78.968V80H138.701L135.173 74.024H132.485V78.536L134.549 78.968V80H128.693ZM150.523 80.12L150.259 78.032C149.571 78.752 148.827 79.296 148.027 79.664C147.243 80.032 146.483 80.216 145.747 80.216C144.819 80.216 144.035 79.92 143.395 79.328C142.755 78.72 142.435 77.816 142.435 76.616C142.435 75.704 142.627 74.992 143.011 74.48C143.411 73.952 143.963 73.584 144.667 73.376C145.371 73.168 146.195 73.064 147.139 73.064H150.067V71.024C150.067 70.16 149.835 69.536 149.371 69.152C148.907 68.768 148.267 68.576 147.451 68.576C146.651 68.576 145.763 68.736 144.787 69.056L144.595 71H143.299L143.107 68.024C144.019 67.72 144.875 67.496 145.675 67.352C146.475 67.192 147.219 67.112 147.907 67.112C149.171 67.112 150.163 67.4 150.883 67.976C151.619 68.536 151.987 69.44 151.987 70.688V78.56L153.883 78.92V79.976L150.523 80.12ZM144.379 76.472C144.379 77.256 144.563 77.832 144.931 78.2C145.315 78.568 145.795 78.752 146.371 78.752C146.915 78.752 147.515 78.592 148.171 78.272C148.827 77.952 149.459 77.512 150.067 76.952V74.336H147.427C146.291 74.336 145.499 74.512 145.051 74.864C144.603 75.2 144.379 75.736 144.379 76.472Z" fill="#9C9C9C"/>
<path d="M103.952 40.201H94.5181V1.02206C94.5181 0.750993 94.4076 0.491028 94.2111 0.299355C94.0145 0.107682 93.7479 0 93.4699 0C93.1919 0 92.9253 0.107682 92.7287 0.299355C92.5321 0.491028 92.4217 0.750993 92.4217 1.02206V34.75H88.9277V31.4863C88.9259 29.6417 88.1736 27.8733 86.836 26.569C85.4983 25.2648 83.6847 24.5312 81.793 24.5294H81.5764L69.8366 5.06942C68.9028 3.52924 67.5745 2.25217 65.9819 1.36346C64.3893 0.47474 62.5872 0.00489453 60.7523 0H52.241C51.963 0 51.6964 0.107682 51.4998 0.299355C51.3032 0.491028 51.1928 0.750993 51.1928 1.02206V24.5294H48.0482C47.7702 24.5294 47.5036 24.6371 47.307 24.8288C47.1104 25.0205 47 25.2804 47 25.5515V41.2231C47 41.4942 47.1104 41.7541 47.307 41.9458C47.5036 42.1375 47.7702 42.2451 48.0482 42.2451H52.0523C52.3718 43.5967 53.1518 44.8027 54.2648 45.6662C55.3779 46.5298 56.7583 47 58.1807 47C59.6032 47 60.9836 46.5298 62.0966 45.6662C63.2097 44.8027 63.9896 43.5967 64.3092 42.2451H71.6186C71.9381 43.5967 72.718 44.8027 73.8311 45.6662C74.9441 46.5298 76.3246 47 77.747 47C79.1694 47 80.5498 46.5298 81.6629 45.6662C82.776 44.8027 83.5559 43.5967 83.8754 42.2451H87.8795C88.1575 42.2451 88.4241 42.1375 88.6207 41.9458C88.8173 41.7541 88.9277 41.4942 88.9277 41.2231V36.7942H92.4217V41.2231C92.4217 41.4942 92.5321 41.7541 92.7287 41.9458C92.9253 42.1375 93.1919 42.2451 93.4699 42.2451H103.952C104.23 42.2451 104.496 42.1375 104.693 41.9458C104.89 41.7541 105 41.4942 105 41.2231C105 40.952 104.89 40.6921 104.693 40.5004C104.496 40.3087 104.23 40.201 103.952 40.201ZM53.2892 2.04412H60.7453C62.2194 2.05122 63.6662 2.43178 64.9439 3.14849C66.2217 3.8652 67.2864 4.89344 68.0337 6.13236L79.1446 24.5294H53.2892V2.04412ZM58.1807 44.9706C57.3515 44.9706 56.5408 44.7309 55.8513 44.2816C55.1618 43.8324 54.6244 43.1939 54.3071 42.4469C53.9898 41.6999 53.9067 40.8779 54.0685 40.0848C54.2303 39.2918 54.6296 38.5633 55.216 37.9916C55.8024 37.4198 56.5494 37.0305 57.3628 36.8727C58.1761 36.715 59.0191 36.7959 59.7852 37.1054C60.5514 37.4148 61.2062 37.9388 61.6669 38.6111C62.1276 39.2834 62.3735 40.0738 62.3735 40.8824C62.3735 41.9667 61.9318 43.0065 61.1455 43.7732C60.3592 44.5399 59.2927 44.9706 58.1807 44.9706ZM77.747 44.9706C76.9177 44.9706 76.1071 44.7309 75.4176 44.2816C74.7281 43.8324 74.1907 43.1939 73.8734 42.4469C73.556 41.6999 73.473 40.8779 73.6348 40.0848C73.7966 39.2918 74.1959 38.5633 74.7823 37.9916C75.3686 37.4198 76.1157 37.0305 76.929 36.8727C77.7423 36.715 78.5854 36.7959 79.3515 37.1054C80.1176 37.4148 80.7724 37.9388 81.2332 38.6111C81.6939 39.2834 81.9398 40.0738 81.9398 40.8824C81.9398 41.9667 81.498 43.0065 80.7117 43.7732C79.9254 44.5399 78.859 44.9706 77.747 44.9706ZM86.8313 40.201H83.9942C83.8164 38.7071 83.0817 37.3289 81.9299 36.3286C80.7781 35.3283 79.2894 34.7756 77.747 34.7756C76.2045 34.7756 74.7159 35.3283 73.5641 36.3286C72.4122 37.3289 71.6776 38.7071 71.4998 40.201H64.428C64.2501 38.7071 63.5155 37.3289 62.3637 36.3286C61.2118 35.3283 59.7232 34.7756 58.1807 34.7756C56.6383 34.7756 55.1496 35.3283 53.9978 36.3286C52.846 37.3289 52.1113 38.7071 51.9335 40.201H49.0964V26.5736H81.793C83.1281 26.5772 84.4075 27.0959 85.3516 28.0164C86.2956 28.937 86.8276 30.1844 86.8313 31.4863V40.201Z" fill="#9C9C9C"/>
</svg>
