<svg width="28" height="30" viewBox="0 0 28 30" fill="none" xmlns="http://www.w3.org/2000/svg">
<rect y="1.67578" width="28" height="28" fill="#D8D8D8"/>
<path d="M11.673 18.6503C11.6406 18.4235 11.6082 18.2048 11.5758 17.9942C11.5596 17.7836 11.5515 17.6054 11.5515 17.4596C11.5515 16.9736 11.6811 16.5443 11.9403 16.1717C12.2157 15.7991 12.5478 15.4589 12.9366 15.1511C13.3254 14.8433 13.7061 14.5355 14.0787 14.2277C14.4675 13.9199 14.7915 13.5878 15.0507 13.2314C15.3261 12.8588 15.4638 12.4376 15.4638 11.9678C15.4638 11.3522 15.237 10.9148 14.7834 10.6556C14.3298 10.3964 13.7628 10.2668 13.0824 10.2668C12.6288 10.2668 12.1347 10.3235 11.6001 10.4369C11.0817 10.5341 10.5795 10.6718 10.0935 10.85L9.729 9.4892C10.3284 9.2624 10.9521 9.0923 11.6001 8.9789C12.2481 8.8655 12.8718 8.8088 13.4712 8.8088C14.2164 8.8088 14.8968 8.906 15.5124 9.1004C16.128 9.2948 16.6221 9.6026 16.9947 10.0238C17.3673 10.445 17.5536 10.9958 17.5536 11.6762C17.5536 12.3242 17.3997 12.8831 17.0919 13.3529C16.8003 13.8065 16.4358 14.2196 15.9984 14.5922C15.5772 14.9486 15.1479 15.2888 14.7105 15.6128C14.2893 15.9206 13.9248 16.2446 13.617 16.5848C13.3254 16.9088 13.1796 17.2895 13.1796 17.7269C13.1796 17.8079 13.1877 17.9456 13.2039 18.14C13.2201 18.3182 13.2282 18.4559 13.2282 18.5531L11.673 18.6503ZM11.4057 21.9551C11.4057 21.5663 11.5353 21.2585 11.7945 21.0317C12.0537 20.8049 12.3453 20.6915 12.6693 20.6915C13.0581 20.6915 13.3659 20.8049 13.5927 21.0317C13.8357 21.2585 13.9572 21.5663 13.9572 21.9551C13.9572 22.3439 13.8276 22.6517 13.5684 22.8785C13.3092 23.1053 13.0095 23.2187 12.6693 23.2187C12.2805 23.2187 11.9727 23.1053 11.7459 22.8785C11.5191 22.6517 11.4057 22.3439 11.4057 21.9551Z" fill="black"/>
</svg>
